<svg width="90" height="90" viewBox="0 0 90 90" fill="none" xmlns="http://www.w3.org/2000/svg">
<g clip-path="url(#clip0)">
<path d="M18.0472 12.4846L19.5845 11.2671C18.3903 11.1366 17.8996 11.7816 17.6987 12.2921C16.7657 11.9084 15.75 12.4112 15.75 12.4112L18.8259 13.517C18.6707 13.1066 18.4006 12.7484 18.0472 12.4846V12.4846Z" fill="#3F3D56"/>
<g opacity="0.3">
<g opacity="0.3">
<g opacity="0.3">
<path opacity="0.3" d="M26.0137 82.2847L25.0882 83.2102C24.8511 83.4473 24.4578 83.4473 24.2206 83.2102C23.9835 82.973 23.9835 82.5797 24.2206 82.3426L25.1461 81.4171C25.3832 81.18 25.7766 81.18 26.0137 81.4171C26.2508 81.6543 26.2508 82.0476 26.0137 82.2847Z" fill="#6979F8"/>
<path opacity="0.3" d="M29.5995 78.6983L28.5584 79.7395C28.3212 79.9766 27.9279 79.9766 27.6908 79.7395C27.4536 79.5023 27.4536 79.109 27.6908 78.8719L28.7319 77.8307C28.969 77.5936 29.3624 77.5936 29.5995 77.8307C29.8367 78.0679 29.8367 78.4612 29.5995 78.6983Z" fill="#6979F8"/>
</g>
<g opacity="0.3">
<path opacity="0.3" d="M29.5998 83.268C29.3626 83.5051 28.9693 83.5051 28.7321 83.268L27.8067 82.3425C27.5695 82.1054 27.5695 81.712 27.8067 81.4749C28.0438 81.2377 28.4372 81.2377 28.6743 81.4749L29.5998 82.4003C29.8369 82.6375 29.8369 83.0308 29.5998 83.268Z" fill="#6979F8"/>
<path opacity="0.3" d="M26.1291 79.7975C25.892 80.0346 25.4987 80.0346 25.2615 79.7975L24.2204 78.7563C23.9832 78.5192 23.9833 78.1259 24.2204 77.8887C24.4575 77.6516 24.8509 77.6516 25.088 77.8887L26.1292 78.9298C26.3663 79.167 26.3663 79.5603 26.1291 79.7975Z" fill="#6979F8"/>
</g>
</g>
<g opacity="0.3">
<g opacity="0.3">
<path opacity="0.3" d="M67.6014 50.6456L66.676 51.571C66.4388 51.8082 66.0455 51.8082 65.8084 51.571C65.5712 51.3339 65.5712 50.9405 65.8084 50.7034L66.7338 49.7779C66.971 49.5408 67.3643 49.5408 67.6014 49.7779C67.8386 50.0151 67.8386 50.4084 67.6014 50.6456Z" fill="#6979F8"/>
<path opacity="0.3" d="M71.1873 47.0592L70.1462 48.1003C69.909 48.3375 69.5157 48.3375 69.2785 48.1003C69.0414 47.8632 69.0414 47.4698 69.2785 47.2327L70.3197 46.1916C70.5568 45.9544 70.9501 45.9544 71.1873 46.1916C71.4244 46.4287 71.4244 46.822 71.1873 47.0592Z" fill="#6979F8"/>
</g>
<g opacity="0.3">
<path opacity="0.3" d="M71.1872 51.6286C70.95 51.8657 70.5567 51.8657 70.3196 51.6286L69.3941 50.7031C69.157 50.4659 69.157 50.0726 69.3941 49.8355C69.6313 49.5983 70.0246 49.5983 70.2617 49.8355L71.1872 50.7609C71.4243 50.9981 71.4243 51.3914 71.1872 51.6286Z" fill="#6979F8"/>
<path opacity="0.3" d="M67.7168 48.1583C67.4797 48.3954 67.0864 48.3954 66.8492 48.1583L65.8081 47.1172C65.5709 46.88 65.5709 46.4867 65.8081 46.2495C66.0452 46.0124 66.4385 46.0124 66.6757 46.2495L67.7168 47.2907C67.954 47.5278 67.954 47.9211 67.7168 48.1583Z" fill="#6979F8"/>
</g>
</g>
<g opacity="0.3">
<g opacity="0.3">
<path opacity="0.3" d="M46.8943 2.86895L45.9689 3.7944C45.7317 4.03155 45.3384 4.03155 45.1013 3.7944C44.8641 3.55726 44.8641 3.16394 45.1013 2.92679L46.0267 2.00133C46.2639 1.76418 46.6572 1.76418 46.8943 2.00133C47.1315 2.23848 47.1315 2.6318 46.8943 2.86895Z" fill="#6979F8"/>
<path opacity="0.3" d="M50.4805 -0.717197L49.4393 0.323944C49.2022 0.561093 48.8089 0.561093 48.5717 0.323945C48.3346 0.0867964 48.3346 -0.306523 48.5717 -0.543672L49.6128 -1.58481C49.85 -1.82196 50.2433 -1.82196 50.4805 -1.58481C50.7176 -1.34767 50.7176 -0.954345 50.4805 -0.717197Z" fill="#6979F8"/>
</g>
<g opacity="0.3">
<path opacity="0.3" d="M50.4804 3.85218C50.2432 4.08933 49.8499 4.08933 49.6127 3.85218L48.6873 2.92673C48.4501 2.68958 48.4501 2.29626 48.6873 2.05911C48.9244 1.82196 49.3178 1.82196 49.5549 2.05911L50.4804 2.98457C50.7175 3.22171 50.7175 3.61503 50.4804 3.85218Z" fill="#6979F8"/>
<path opacity="0.3" d="M47.0098 0.381683C46.7726 0.618832 46.3793 0.618833 46.1422 0.381685L45.101 -0.659454C44.8639 -0.896602 44.8639 -1.28992 45.101 -1.52707C45.3382 -1.76422 45.7315 -1.76422 45.9686 -1.52707L47.0098 -0.485934C47.2469 -0.248786 47.2469 0.144534 47.0098 0.381683Z" fill="#6979F8"/>
</g>
</g>
<path opacity="0.3" d="M42.4461 85.8648C41.671 86.6398 40.4101 86.6398 39.635 85.8648C38.86 85.0897 38.86 83.8288 39.635 83.0537C40.4101 82.2786 41.671 82.2786 42.4461 83.0537C43.2212 83.8288 43.2212 85.0897 42.4461 85.8648ZM40.5026 83.9213C40.2077 84.2163 40.2077 84.7022 40.5026 84.9972C40.7976 85.2921 41.2835 85.2921 41.5785 84.9972C41.8735 84.7022 41.8735 84.2163 41.5785 83.9213C41.2777 83.6205 40.7976 83.6263 40.5026 83.9213Z" fill="#6979F8"/>
<path opacity="0.3" d="M61.5046 12.3894C60.7295 13.1645 59.4686 13.1645 58.6935 12.3894C57.9185 11.6144 57.9185 10.3534 58.6935 9.57835C59.4686 8.80328 60.7295 8.80328 61.5046 9.57835C62.2797 10.3534 62.2797 11.6144 61.5046 12.3894ZM59.5611 10.446C59.2662 10.741 59.2662 11.2268 59.5611 11.5218C59.8561 11.8168 60.342 11.8168 60.637 11.5218C60.932 11.2268 60.932 10.741 60.637 10.446C60.342 10.151 59.8561 10.151 59.5611 10.446Z" fill="#6979F8"/>
</g>
<g opacity="0.3">
<path opacity="0.3" d="M38.6924 7.6583C38.6057 7.74506 38.4842 7.80869 38.3569 7.83182C36.9167 8.05741 35.4822 8.36975 34.0825 8.76308C33.7586 8.85562 33.4173 8.66474 33.3248 8.34083C33.2322 8.01692 33.4231 7.67566 33.747 7.58312C35.193 7.17823 36.6738 6.85431 38.1603 6.62873C38.49 6.57667 38.8081 6.80225 38.8602 7.14351C38.8949 7.32861 38.8255 7.52526 38.6924 7.6583Z" fill="#6979F8"/>
<path opacity="0.3" d="M10.8477 27.6134C10.6626 27.7985 10.3676 27.8506 10.1246 27.7233C9.82387 27.5614 9.70819 27.1912 9.86436 26.8962C11.6864 23.4431 14.0116 20.285 16.7937 17.5028C18.9685 15.328 21.3863 13.4192 23.9834 11.8286C24.2726 11.6551 24.6485 11.7418 24.8221 12.031C24.9956 12.3203 24.9088 12.6962 24.6196 12.8697C22.1093 14.4199 19.7667 16.265 17.6613 18.3704C14.9659 21.0658 12.7101 24.1198 10.9576 27.4573C10.9286 27.5209 10.8881 27.5729 10.8477 27.6134Z" fill="#6979F8"/>
<path opacity="0.3" d="M6.4983 44.2605C6.38261 44.3762 6.22066 44.4456 6.04135 44.4398C5.70587 44.4282 5.43402 44.1448 5.44559 43.8093C5.46872 42.9764 5.52078 42.1261 5.59598 41.299C5.63068 40.9635 5.92567 40.7148 6.26693 40.7437C6.60241 40.7785 6.85113 41.0734 6.8222 41.4147C6.74701 42.2187 6.69495 43.0343 6.67182 43.844C6.67182 44.006 6.60241 44.1564 6.4983 44.2605Z" fill="#6979F8"/>
<path opacity="0.3" d="M21.3113 75.5697C21.0973 75.7837 20.7445 75.8126 20.5015 75.616C19.2059 74.6095 17.9623 73.5164 16.7939 72.348C15.6313 71.1854 14.5439 69.9476 13.5432 68.6577C10.4372 64.6609 8.18138 60.1609 6.84526 55.2849C6.75271 54.9609 6.94359 54.6197 7.27328 54.5329C7.59719 54.4404 7.93845 54.6312 8.02521 54.9609C9.33242 59.6808 11.513 64.0362 14.515 67.9058C15.4809 69.1494 16.5452 70.3524 17.6673 71.4746C18.7952 72.6025 20.0041 73.6725 21.2592 74.6385C21.5253 74.8467 21.5774 75.2342 21.3691 75.5003C21.3402 75.5292 21.3287 75.5524 21.3113 75.5697Z" fill="#6979F8"/>
<path opacity="0.3" d="M54.5583 82.233C54.4831 82.3082 54.3906 82.366 54.2865 82.3891C52.6264 82.8345 50.9201 83.1758 49.2138 83.3898C48.8783 83.4361 48.5718 83.1989 48.5255 82.8634C48.4792 82.528 48.7164 82.2214 49.0519 82.1751C50.7003 81.9611 52.3546 81.6372 53.9683 81.2034C54.298 81.1166 54.6335 81.3133 54.7145 81.6372C54.7723 81.857 54.7087 82.0826 54.5583 82.233Z" fill="#6979F8"/>
<path opacity="0.3" d="M71.6386 72.3476C69.1919 74.7943 66.4444 76.8939 63.4772 78.6003C63.1822 78.768 62.8062 78.6697 62.6385 78.3747C62.4708 78.0797 62.5691 77.7037 62.8641 77.536C65.7388 75.8875 68.3995 73.8515 70.7709 71.48C72.6855 69.5655 74.3976 67.4485 75.8436 65.1927C76.0229 64.9093 76.4047 64.8283 76.6881 65.0076C76.9715 65.1869 77.0525 65.5687 76.8732 65.8521C75.3809 68.1889 73.6167 70.3695 71.6386 72.3476Z" fill="#6979F8"/>
<path opacity="0.3" d="M81.4082 55.6608C81.2578 55.8111 81.0265 55.8806 80.8124 55.8169C80.4885 55.7244 80.2919 55.3889 80.3902 55.0592C80.6736 54.047 80.9166 53.0059 81.1132 51.9763C81.1768 51.6466 81.5008 51.4268 81.8305 51.4904C82.1601 51.554 82.3799 51.878 82.3163 52.2076C82.1139 53.2777 81.8652 54.3478 81.5702 55.3947C81.5355 55.4988 81.4834 55.5856 81.4082 55.6608Z" fill="#6979F8"/>
<path opacity="0.3" d="M82.773 43.4329C82.6689 43.537 82.5301 43.6064 82.3739 43.6122C82.0327 43.6296 81.7492 43.3693 81.7319 43.028C81.4195 36.7927 79.5397 30.6905 76.3064 25.3865C76.1329 25.0973 76.2196 24.7213 76.5146 24.542C76.8038 24.3685 77.1798 24.4553 77.3591 24.7502C80.6965 30.2278 82.6342 36.5267 82.9639 42.9644C82.9581 43.1437 82.8887 43.3172 82.773 43.4329Z" fill="#6979F8"/>
<path opacity="0.3" d="M71.6386 18.3704C71.4014 18.6075 71.0081 18.6075 70.7709 18.3704C69.9727 17.5722 69.134 16.8029 68.2722 16.0799C67.5665 15.4899 66.832 14.9173 66.0916 14.3851C65.814 14.1885 65.7561 13.8067 65.9528 13.5291C66.1494 13.2515 66.5312 13.1936 66.8088 13.3903C67.5781 13.9398 68.3416 14.5297 69.0646 15.1371C69.9554 15.8774 70.823 16.6756 71.6501 17.5028C71.8815 17.7457 71.8757 18.1332 71.6386 18.3704Z" fill="#6979F8"/>
</g>
<circle cx="44.5" cy="45.5" r="32.5" fill="#A7C7FF"/>
<mask id="mask0" mask-type="alpha" maskUnits="userSpaceOnUse" x="12" y="13" width="65" height="65">
<circle cx="44.5" cy="45.5" r="32.5" fill="#488BFF"/>
</mask>
<g mask="url(#mask0)">
<path d="M75.1075 65.4409H70.4659V69.5036H75.1075V65.4409Z" fill="white"/>
<path d="M68.3516 29.9001H62.7909V48.961H68.3516V29.9001Z" fill="#F2F2F2"/>
<path d="M72.0239 45.3749L58.4994 29.4424L31.3516 29.6881L14.8834 45.5721L15.2161 45.7839H15.0972V78.8227H71.9875V45.7839L72.0239 45.3749Z" fill="#F2F2F2"/>
<path d="M58.5134 29.4763L41.6174 49.0919V78.8228H71.9875V45.3604L58.5134 29.4763Z" fill="#E6E6E6"/>
<path d="M60.0106 62.3813H53.8083V67.81H60.0106V62.3813Z" fill="#3F3D56"/>
<path d="M60.0106 52.9849H53.8083V58.3275H60.0106V52.9849Z" fill="#3F3D56"/>
<path d="M60.0106 62.3813H53.8083V67.81H60.0106V62.3813Z" fill="white"/>
<path d="M60.0106 52.9849H53.8083V58.3275H60.0106V52.9849Z" fill="white"/>
<path d="M32.4471 60.9407H26.2447V66.3693H32.4471V60.9407Z" fill="white"/>
<path d="M32.4471 51.5447H26.2447V56.8873H32.4471V51.5447Z" fill="white"/>
<path d="M31.2923 73.676C33.5098 73.676 35.3075 70.0439 35.3075 65.5634C35.3075 61.0829 33.5098 57.4507 31.2923 57.4507C29.0748 57.4507 27.2771 61.0829 27.2771 65.5634C27.2771 70.0439 29.0748 73.676 31.2923 73.676Z" fill="#3F3D56"/>
<path d="M31.6631 78.8429C30.055 69.2886 31.6469 59.7688 31.6632 59.6738L31.9759 59.7263C31.9598 59.8208 30.377 69.2906 31.976 78.7913L31.6631 78.8429Z" fill="#488BFF"/>
<path d="M34.8273 63.8191L31.1965 65.7422L31.3462 66.0193L34.977 64.0962L34.8273 63.8191Z" fill="#488BFF"/>
<path d="M27.5142 64.7828L27.3645 65.0598L30.9949 66.984L31.1446 66.707L27.5142 64.7828Z" fill="#488BFF"/>
<path d="M21.6451 68.9194C25.9823 68.9194 29.4983 61.8153 29.4983 53.052C29.4983 44.2887 25.9823 37.1846 21.6451 37.1846C17.3079 37.1846 13.7919 44.2887 13.7919 53.052C13.7919 61.8153 17.3079 68.9194 21.6451 68.9194Z" fill="#488BFF"/>
<path d="M22.5198 78.9999C19.3787 60.3375 22.4881 41.743 22.5198 41.5574L22.8326 41.6098C22.801 41.795 19.7007 60.3395 22.8327 78.9484L22.5198 78.9999Z" fill="#3F3D56"/>
<path d="M28.6307 49.7729L21.5291 53.5344L21.6787 53.8115L28.7804 50.05L28.6307 49.7729Z" fill="#3F3D56"/>
<path d="M14.184 51.6568L14.0343 51.9338L21.1348 55.6973L21.2845 55.4202L14.184 51.6568Z" fill="#3F3D56"/>
<path d="M40.2447 65.2152C46.1799 65.2152 50.9912 55.4938 50.9912 43.5019C50.9912 31.51 46.1799 21.7886 40.2447 21.7886C34.3096 21.7886 29.4983 31.51 29.4983 43.5019C29.4983 55.4938 34.3096 65.2152 40.2447 65.2152Z" fill="#488BFF"/>
<path d="M41.4994 78.9997C37.2027 53.4711 41.4561 28.0356 41.4995 27.7817L41.8123 27.8342C41.7689 28.0877 37.5247 53.4731 41.8124 78.9482L41.4994 78.9997Z" fill="#3F3D56"/>
<path d="M49.8315 39.0651L40.1136 44.2124L40.2633 44.4895L49.9812 39.3422L49.8315 39.0651Z" fill="#3F3D56"/>
<path d="M30.0073 41.6431L29.8576 41.9202L39.5741 47.0699L39.7239 46.7929L30.0073 41.6431Z" fill="#3F3D56"/>
<path d="M60.6454 22.3858L61.9156 21.3798C60.9288 21.272 60.5234 21.8049 60.3574 22.2267C59.5865 21.9097 58.7473 22.3252 58.7473 22.3252L61.2888 23.2388C61.1606 22.8997 60.9374 22.6038 60.6454 22.3858V22.3858Z" fill="#3F3D56"/>
<path d="M75.4308 72.6353H57.1388V73.2195H59.9916V78.7705H60.5816V73.2195H71.6928V78.7705H72.283V73.2195H75.4308V72.6353Z" fill="#3F3D56"/>
<path d="M75.4668 70.887H57.1748V71.4713H75.4668V70.887Z" fill="#3F3D56"/>
<path d="M75.4668 69.4263H57.1748V70.0106H75.4668V69.4263Z" fill="#3F3D56"/>
<path d="M75.4668 67.9658H57.1748V68.5501H75.4668V67.9658Z" fill="#3F3D56"/>
</g>
</g>
<defs>
<clipPath id="clip0">
<rect width="90" height="90" fill="white"/>
</clipPath>
</defs>
</svg>
