<svg width="90" height="90" viewBox="0 0 90 90" fill="none" xmlns="http://www.w3.org/2000/svg">
<g clip-path="url(#clip0)">
<g clip-path="url(#clip1)">
<path d="M59.2107 39.3082C63.0569 39.3082 66.1748 36.1986 66.1748 32.3628C66.1748 28.527 63.0569 25.4175 59.2107 25.4175C55.3645 25.4175 52.2466 28.527 52.2466 32.3628C52.2466 36.1986 55.3645 39.3082 59.2107 39.3082Z" fill="#B9D3FF"/>
<path d="M78.3137 37.5413C78.329 37.5385 78.3406 37.5278 78.3585 37.5306C78.3506 37.5005 78.3404 37.4711 78.3279 37.4426C78.3058 37.4728 78.2832 37.5035 78.2634 37.5304L78.3137 37.5413Z" fill="white"/>
<path d="M31.6042 48.8011C31.6449 50.3164 31.8994 51.8184 32.3602 53.2629C32.3708 53.2964 32.3818 53.3294 32.3928 53.3629H35.2142C35.2112 53.3329 35.2082 53.2994 35.2052 53.2629C35.017 51.106 33.9324 37.9788 35.2292 35.7339C35.1159 35.916 31.3855 41.9478 31.6042 48.8011Z" fill="#E6E6E6"/>
<path d="M31.8159 53.2629C31.8395 53.2964 31.8641 53.33 31.8892 53.363H34.0057C33.9896 53.3345 33.9711 53.3009 33.9495 53.2629C33.5998 52.6335 32.5649 50.7518 31.6042 48.8011C30.5718 46.7048 29.6246 44.5289 29.7044 43.7415C29.6798 43.9191 28.9654 49.3335 31.8159 53.2629Z" fill="#E6E6E6"/>
<path d="M53.8096 53.6239C53.7741 54.9449 53.5523 56.2544 53.1505 57.5137C53.1413 57.543 53.1317 57.5717 53.1221 57.601H50.6624C50.665 57.5748 50.6676 57.5456 50.6702 57.5137C50.8343 55.6333 51.7798 44.1888 50.6492 42.2317C50.7481 42.3905 54.0003 47.6491 53.8096 53.6239Z" fill="#E6E6E6"/>
<path d="M53.6251 57.5136C53.6045 57.5428 53.5831 57.5721 53.5612 57.6009H51.716C51.73 57.576 51.7461 57.5468 51.765 57.5136C52.0698 56.9649 52.9721 55.3244 53.8096 53.6238C54.7097 51.7961 55.5355 49.8992 55.4659 49.2126C55.4873 49.3675 56.1101 54.0878 53.6251 57.5136Z" fill="#E6E6E6"/>
<path d="M36.0725 12.0223L37.2196 11.1073C36.3285 11.0092 35.9624 11.4939 35.8125 11.8776C35.1163 11.5893 34.3585 11.9671 34.3585 11.9671L36.6535 12.798C36.5378 12.4896 36.3362 12.2205 36.0725 12.0223V12.0223Z" fill="#3F3D56"/>
<path d="M77.1114 46.2046C77.1114 46.9627 77.0849 47.7146 77.032 48.4604C76.6234 54.3438 74.5779 59.997 71.1252 64.7849C70.674 65.4129 70.2003 66.0233 69.7039 66.6161C68.4179 68.1543 66.9901 69.5688 65.4392 70.841L58.6408 66.8626L54.5761 57.4013C54.5761 57.4013 60.6408 45.155 77.1006 45.377C77.1075 45.6519 77.1111 45.9277 77.1114 46.2046Z" fill="#3F3D56"/>
<path d="M77.0319 48.4605C76.7192 52.857 75.4961 57.1411 73.4398 61.0425C71.3836 64.9439 68.5388 68.3779 65.0851 71.1278L58.7693 67.432L55.1647 59.0409C55.1647 59.0409 61.0057 47.2465 77.0319 48.4605Z" fill="#488BFF"/>
<path d="M71.1252 64.7848C70.674 65.4128 70.2003 66.0232 69.704 66.616C66.3783 70.601 62.1288 73.7176 57.3235 75.6959C56.3505 76.096 55.3546 76.4488 54.3358 76.7543C46.9794 78.7053 39.1859 78.2119 32.136 75.3486C25.1637 72.2451 19.5294 66.764 16.2451 59.8898C15.8037 58.9644 15.4068 58.0156 15.0543 57.0432C21.2014 52.5522 33.314 46.1214 46.5154 52.3703C50.1672 54.0988 53.4279 55.6744 56.2975 57.097C63.5795 60.6969 68.4259 63.2921 71.1252 64.7848Z" fill="#3F3D56"/>
<path d="M69.704 66.616C66.2662 70.725 61.8474 73.9057 56.8543 75.8657C51.8612 77.8256 46.454 78.5018 41.1302 77.8319C35.8065 77.1621 30.7371 75.1678 26.3886 72.0325C22.04 68.8971 18.5518 64.7215 16.2451 59.8897C21.3789 55.8409 33.2198 48.5649 46.2143 54.715C49.5561 56.2967 52.5395 57.7386 55.1647 59.0406C62.8173 62.8234 67.5313 65.3942 69.704 66.616Z" fill="#488BFF"/>
<path d="M60.6428 74.1002C59.5677 74.6946 58.4595 75.2273 57.3235 75.6957C53.4578 77.2845 49.3165 78.0995 45.1354 78.0943C40.1879 78.0924 35.3082 76.9465 30.8795 74.7468C26.4509 72.5471 22.5939 69.3535 19.6114 65.4166C27.2484 64.6135 48.3585 63.5306 60.6428 74.1002Z" fill="#3F3D56"/>
<path d="M57.3235 75.6959C51.3292 78.154 44.7279 78.7395 38.3926 77.375C32.0574 76.0105 26.2867 72.7602 21.8438 68.054C24.6216 67.6471 46.4301 64.8523 57.3235 75.6959Z" fill="#488BFF"/>
<path d="M71.7481 28.5204V28.5214C48.9156 11.6853 22.756 23.5354 22.554 23.6264V23.6254C25.519 20.6687 29.0398 18.3244 32.9147 16.7267C36.7896 15.129 40.9424 14.3094 45.1354 14.3147C56.2358 14.3147 66.015 19.9561 71.7481 28.5204Z" fill="#E6E6E6"/>
<path d="M24.3853 46.8229C28.2478 46.1284 30.2271 39.1937 28.8061 31.3338C27.3852 23.474 23.1021 17.6654 19.2396 18.3599C15.3771 19.0544 13.3978 25.9891 14.8187 33.8489C16.2397 41.7088 20.5228 47.5174 24.3853 46.8229Z" fill="#3F3D56"/>
<path d="M25.3779 56.0022C25.1489 38.7381 19.357 22.5367 19.2985 22.3752L18.7703 22.5653C18.8285 22.726 24.5886 38.8424 24.8164 56.0098L25.3779 56.0022Z" fill="#488BFF"/>
<path d="M15.1019 30.6385L14.9291 31.1714L21.8632 33.4078L22.036 32.8749L15.1019 30.6385Z" fill="#488BFF"/>
<path d="M28.1455 30.038L22.4323 34.5505L22.781 34.9896L28.4942 30.4771L28.1455 30.038Z" fill="#488BFF"/>
<path d="M42.9577 44.3338C47.2047 44.3338 50.6475 37.3279 50.6475 28.6857C50.6475 20.0435 47.2047 13.0376 42.9577 13.0376C38.7107 13.0376 35.2678 20.0435 35.2678 28.6857C35.2678 37.3279 38.7107 44.3338 42.9577 44.3338Z" fill="#3F3D56"/>
<path d="M42.2476 54.2992C45.3275 35.8704 42.2786 17.5081 42.2474 17.325L41.6483 17.4262C41.6794 17.6084 44.7107 35.8742 41.6482 54.1998L42.2476 54.2992Z" fill="#488BFF"/>
<path d="M36.1875 25.321L35.9008 25.8555L42.8545 29.5649L43.1412 29.0304L36.1875 25.321Z" fill="#488BFF"/>
<path d="M50.1935 27.1789L43.2406 30.8904L43.5274 31.4247L50.4803 27.7132L50.1935 27.1789Z" fill="#488BFF"/>
<path d="M76.3601 39.3005C73.5387 37.7207 70.5909 36.3766 67.5471 35.282C50.7165 29.2082 34.0271 31.5491 27.4946 40.2415C32.5784 29.5927 50.7184 26.2442 69.0242 32.8501C71.1548 33.6183 73.2399 34.5067 75.2694 35.5109C75.7115 36.7503 76.0758 38.0159 76.3601 39.3005V39.3005Z" fill="#E6E6E6"/>
<path d="M53.6293 22.1641L54.7763 21.2491C53.8852 21.1511 53.5191 21.6358 53.3692 22.0194C52.6731 21.7311 51.9152 22.1089 51.9152 22.1089L54.2103 22.9399C54.0945 22.6315 53.8929 22.3623 53.6293 22.1641Z" fill="#3F3D56"/>
</g>
<g opacity="0.3">
<g opacity="0.3">
<g opacity="0.3">
<path opacity="0.3" d="M33.0789 6.1725L33.1438 4.86532C33.1605 4.53035 33.4521 4.26638 33.787 4.28303C34.122 4.29967 34.386 4.59125 34.3693 4.92622L34.3044 6.2334C34.2877 6.56836 33.9961 6.83233 33.6612 6.81569C33.3262 6.79904 33.0622 6.50747 33.0789 6.1725Z" fill="#6979F8"/>
<path opacity="0.3" d="M32.8277 11.2378L32.9007 9.76718C32.9174 9.43221 33.209 9.16824 33.5439 9.18488C33.8789 9.20153 34.1429 9.49311 34.1262 9.82807L34.0532 11.2987C34.0365 11.6336 33.7449 11.8976 33.41 11.8809C33.075 11.8643 32.811 11.5727 32.8277 11.2378Z" fill="#6979F8"/>
</g>
<g opacity="0.3">
<path opacity="0.3" d="M29.7606 7.85017C29.7772 7.5152 30.0688 7.25123 30.4038 7.26787L31.7109 7.33283C32.0459 7.34948 32.3099 7.64106 32.2932 7.97602C32.2766 8.31099 31.985 8.57496 31.65 8.55831L30.3429 8.49336C30.0079 8.47671 29.7439 8.18513 29.7606 7.85017Z" fill="#6979F8"/>
<path opacity="0.3" d="M34.6627 8.09376C34.6793 7.75879 34.9709 7.49482 35.3059 7.51146L36.7765 7.58454C37.1114 7.60119 37.3754 7.89277 37.3587 8.22773C37.3421 8.5627 37.0505 8.82667 36.7156 8.81002L35.245 8.73695C34.91 8.7203 34.646 8.42872 34.6627 8.09376Z" fill="#6979F8"/>
</g>
</g>
<g opacity="0.3">
<g opacity="0.3">
<path opacity="0.3" d="M23.4829 57.5387L23.5479 56.2315C23.5645 55.8966 23.8561 55.6326 24.1911 55.6492C24.526 55.6659 24.79 55.9575 24.7734 56.2924L24.7084 57.5996C24.6918 57.9346 24.4002 58.1985 24.0652 58.1819C23.7302 58.1653 23.4663 57.8737 23.4829 57.5387Z" fill="#6979F8"/>
<path opacity="0.3" d="M23.2317 62.604L23.3047 61.1334C23.3214 60.7984 23.613 60.5344 23.9479 60.5511C24.2829 60.5677 24.5469 60.8593 24.5302 61.1943L24.4571 62.6649C24.4405 62.9998 24.1489 63.2638 23.814 63.2472C23.479 63.2305 23.215 62.9389 23.2317 62.604Z" fill="#6979F8"/>
</g>
<g opacity="0.3">
<path opacity="0.3" d="M20.165 59.2166C20.1817 58.8817 20.4733 58.6177 20.8082 58.6343L22.1154 58.6993C22.4504 58.7159 22.7143 59.0075 22.6977 59.3425C22.6811 59.6774 22.3895 59.9414 22.0545 59.9248L20.7473 59.8598C20.4124 59.8432 20.1484 59.5516 20.165 59.2166Z" fill="#6979F8"/>
<path opacity="0.3" d="M25.0668 59.4602C25.0834 59.1252 25.375 58.8613 25.71 58.8779L27.1805 58.951C27.5155 58.9676 27.7795 59.2592 27.7628 59.5942C27.7462 59.9292 27.4546 60.1931 27.1197 60.1765L25.6491 60.1034C25.3141 60.0868 25.0501 59.7952 25.0668 59.4602Z" fill="#6979F8"/>
</g>
</g>
<g opacity="0.3">
<g opacity="0.3">
<path opacity="0.3" d="M70.8986 79.0595L70.9636 77.7523C70.9802 77.4173 71.2718 77.1533 71.6067 77.17C71.9417 77.1866 72.2057 77.4782 72.189 77.8132L72.1241 79.1204C72.1074 79.4553 71.8159 79.7193 71.4809 79.7027C71.1459 79.686 70.8819 79.3944 70.8986 79.0595Z" fill="#6979F8"/>
<path opacity="0.3" d="M70.6469 84.1247L70.72 82.6541C70.7366 82.3192 71.0282 82.0552 71.3632 82.0718C71.6981 82.0885 71.9621 82.3801 71.9455 82.715L71.8724 84.1856C71.8558 84.5206 71.5642 84.7846 71.2292 84.7679C70.8942 84.7513 70.6303 84.4597 70.6469 84.1247Z" fill="#6979F8"/>
</g>
<g opacity="0.3">
<path opacity="0.3" d="M67.5803 80.7371C67.5969 80.4022 67.8885 80.1382 68.2235 80.1548L69.5307 80.2198C69.8656 80.2364 70.1296 80.528 70.113 80.863C70.0963 81.198 69.8047 81.4619 69.4698 81.4453L68.1626 81.3803C67.8276 81.3637 67.5636 81.0721 67.5803 80.7371Z" fill="#6979F8"/>
<path opacity="0.3" d="M72.4824 80.9807C72.4991 80.6458 72.7906 80.3818 73.1256 80.3984L74.5962 80.4715C74.9311 80.4881 75.1951 80.7797 75.1785 81.1147C75.1618 81.4497 74.8702 81.7136 74.5353 81.697L73.0647 81.6239C72.7297 81.6073 72.4658 81.3157 72.4824 80.9807Z" fill="#6979F8"/>
</g>
</g>
<path opacity="0.3" d="M18.4944 14.5468C18.5488 13.452 19.4835 12.6057 20.5783 12.6601C21.6731 12.7145 22.5193 13.6493 22.4649 14.7441C22.4105 15.8388 21.4758 16.6851 20.381 16.6307C19.2862 16.5763 18.44 15.6415 18.4944 14.5468ZM21.2394 14.6832C21.2602 14.2665 20.9341 13.9063 20.5174 13.8856C20.1007 13.8649 19.7406 14.191 19.7198 14.6077C19.6991 15.0243 20.0252 15.3845 20.4419 15.4052C20.8667 15.4263 21.2187 15.0998 21.2394 14.6832Z" fill="#6979F8"/>
<path opacity="0.3" d="M53.6781 81.8073C53.7325 80.7125 54.6673 79.8662 55.762 79.9206C56.8568 79.975 57.703 80.9098 57.6486 82.0046C57.5942 83.0993 56.6595 83.9456 55.5647 83.8912C54.4699 83.8368 53.6237 82.902 53.6781 81.8073ZM56.4232 81.9437C56.4439 81.527 56.1178 81.1668 55.7011 81.1461C55.2845 81.1254 54.9243 81.4515 54.9036 81.8682C54.8829 82.2848 55.2089 82.645 55.6256 82.6657C56.0423 82.6864 56.4025 82.3603 56.4232 81.9437Z" fill="#6979F8"/>
</g>
<g opacity="0.3">
<path opacity="0.3" d="M73.7647 70.0048C73.7708 69.8822 73.8182 69.7535 73.897 69.651C74.8133 68.5171 75.6671 67.3229 76.4408 66.0919C76.6188 65.8059 76.9999 65.7183 77.2859 65.8963C77.5719 66.0744 77.6594 66.4554 77.4814 66.7414C76.6811 68.0121 75.8008 69.246 74.8502 70.4109C74.6407 70.6708 74.2535 70.717 73.9859 70.499C73.8359 70.3851 73.7554 70.1927 73.7647 70.0048Z" fill="#6979F8"/>
<path opacity="0.3" d="M81.0142 36.5235C81.0271 36.2621 81.2109 36.0255 81.4764 35.9568C81.8081 35.875 82.1423 36.0718 82.2245 36.3953C83.1913 40.178 83.5871 44.0798 83.3918 48.0095C83.2392 51.0813 82.7278 54.119 81.8701 57.0412C81.7722 57.3639 81.4352 57.5519 81.1125 57.454C80.7897 57.3561 80.6017 57.0191 80.6997 56.6964C81.5203 53.8625 82.0185 50.9224 82.1663 47.9486C82.3555 44.1414 81.9781 40.3634 81.0375 36.7131C81.0162 36.6465 81.0113 36.5807 81.0142 36.5235Z" fill="#6979F8"/>
<path opacity="0.3" d="M73.0661 21.2637C73.0742 21.1003 73.1477 20.9402 73.2845 20.8241C73.5409 20.6076 73.9327 20.6352 74.1492 20.8917C74.6911 21.5247 75.2232 22.1899 75.7225 22.8536C75.922 23.1256 75.8702 23.5079 75.5978 23.7155C75.3258 23.9149 74.9434 23.8632 74.7358 23.5908C74.252 22.9443 73.7432 22.3048 73.2169 21.6889C73.1082 21.5689 73.0587 21.4108 73.0661 21.2637Z" fill="#6979F8"/>
<path opacity="0.3" d="M41.0718 7.99469C41.0868 7.6924 41.329 7.43417 41.6411 7.41691C43.277 7.29346 44.9326 7.26926 46.5829 7.35127C48.2251 7.43287 49.862 7.62068 51.4694 7.90531C56.4545 8.78367 61.1469 10.6057 65.4099 13.3237C65.6959 13.5017 65.7835 13.8828 65.5973 14.1684C65.4193 14.4544 65.0382 14.5419 64.7526 14.3558C60.6158 11.7341 56.0762 9.96881 51.2537 9.11491C49.703 8.84129 48.1066 8.66368 46.5216 8.58492C44.9285 8.50575 43.3142 8.52381 41.7354 8.65011C41.3984 8.67431 41.0997 8.42196 41.0755 8.08496C41.0776 8.04411 41.0706 8.0192 41.0718 7.99469Z" fill="#6979F8"/>
<path opacity="0.3" d="M11.9528 25.3684C11.958 25.2622 11.9878 25.1572 12.0495 25.0701C12.9812 23.6259 14.0171 22.2277 15.1384 20.9239C15.3561 20.6644 15.7425 20.6345 16.0019 20.8521C16.2614 21.0698 16.2913 21.4562 16.0737 21.7156C14.9953 22.9806 13.9863 24.331 13.0811 25.7357C12.8949 26.0213 12.5143 26.1006 12.2368 25.9148C12.0464 25.7907 11.9422 25.5808 11.9528 25.3684Z" fill="#6979F8"/>
<path opacity="0.3" d="M5.92516 44.1599C6.0969 40.704 6.72452 37.3036 7.77905 34.0472C7.88516 33.7249 8.22987 33.5455 8.5522 33.6516C8.87453 33.7577 9.05396 34.1024 8.94785 34.4247C7.92311 37.5761 7.3171 40.8711 7.15065 44.2208C7.01627 46.925 7.16783 49.6435 7.60981 52.2862C7.6671 52.6167 7.43844 52.9329 7.10799 52.9902C6.77754 53.0475 6.46131 52.8188 6.40402 52.4884C5.942 49.7545 5.78632 46.954 5.92516 44.1599Z" fill="#6979F8"/>
<path opacity="0.3" d="M9.88183 63.0872C9.89239 62.8748 10.0173 62.6681 10.2187 62.5716C10.5209 62.4228 10.8919 62.5395 11.0402 62.8499C11.5095 63.7905 12.0281 64.7254 12.5733 65.6206C12.7474 65.9078 12.6548 66.2881 12.3677 66.4622C12.0806 66.6363 11.7003 66.5437 11.5261 66.2566C10.9581 65.3274 10.4243 64.3672 9.94034 63.3931C9.89619 63.2927 9.87655 63.1934 9.88183 63.0872Z" fill="#6979F8"/>
<path opacity="0.3" d="M17.0766 73.0681C17.0839 72.9211 17.1403 72.7764 17.2521 72.6673C17.4935 72.4254 17.8783 72.4282 18.1202 72.6695C22.5365 77.0823 28.0255 80.3444 33.9822 82.1064C34.3049 82.2044 34.4929 82.5413 34.3946 82.8722C34.2967 83.195 33.9597 83.383 33.6288 83.2846C27.4785 81.4638 21.8146 78.0947 17.2496 73.5435C17.1335 73.4067 17.0685 73.2315 17.0766 73.0681Z" fill="#6979F8"/>
<path opacity="0.3" d="M42.1515 84.1749C42.1681 83.84 42.4597 83.576 42.7946 83.5926C43.9221 83.6487 45.0601 83.6561 46.1843 83.6136C47.1034 83.5774 48.0322 83.5089 48.9382 83.4065C49.276 83.366 49.5751 83.6102 49.6157 83.948C49.6562 84.2858 49.412 84.5849 49.0742 84.6254C48.1352 84.7343 47.1732 84.8094 46.2296 84.8444C45.0724 84.8934 43.8935 84.8839 42.7252 84.8259C42.3906 84.801 42.1348 84.5099 42.1515 84.1749Z" fill="#6979F8"/>
</g>
</g>
<defs>
<clipPath id="clip0">
<rect width="90" height="90" fill="white"/>
</clipPath>
<clipPath id="clip1">
<rect width="64" height="69" fill="white" transform="translate(14.3585 9.09448)"/>
</clipPath>
</defs>
</svg>
