<svg width="90" height="90" viewBox="0 0 90 90" fill="none" xmlns="http://www.w3.org/2000/svg">
<g clip-path="url(#clip0)">
<g opacity="0.3">
<g opacity="0.3">
<g opacity="0.3">
<path opacity="0.3" d="M5.28241 59.3273H3.97362C3.63824 59.3273 3.36012 59.0492 3.36012 58.7138C3.36012 58.3785 3.63824 58.1003 3.97362 58.1003H5.28241C5.61779 58.1003 5.89591 58.3785 5.89591 58.7138C5.89591 59.0492 5.61779 59.3273 5.28241 59.3273Z" fill="#6979F8"/>
<path opacity="0.3" d="M10.354 59.3268H8.88159C8.54622 59.3268 8.2681 59.0487 8.2681 58.7134C8.2681 58.378 8.54622 58.0999 8.88159 58.0999H10.354C10.6894 58.0999 10.9675 58.378 10.9675 58.7134C10.9675 59.0487 10.6894 59.3268 10.354 59.3268Z" fill="#6979F8"/>
</g>
<g opacity="0.3">
<path opacity="0.3" d="M7.1229 62.5583C6.78752 62.5583 6.5094 62.2801 6.5094 61.9448V60.636C6.5094 60.3006 6.78752 60.0225 7.1229 60.0225C7.45827 60.0225 7.73639 60.3006 7.73639 60.636V61.9448C7.73639 62.2801 7.45827 62.5583 7.1229 62.5583Z" fill="#6979F8"/>
<path opacity="0.3" d="M7.12288 57.6501C6.7875 57.6501 6.50938 57.3719 6.50938 57.0366V55.5642C6.50938 55.2288 6.7875 54.9507 7.12288 54.9507C7.45826 54.9507 7.73638 55.2288 7.73638 55.5642V57.0366C7.73638 57.3719 7.45826 57.6501 7.12288 57.6501Z" fill="#6979F8"/>
</g>
</g>
<g opacity="0.3">
<g opacity="0.3">
<path opacity="0.3" d="M57.0616 66.362H55.7528C55.4174 66.362 55.1393 66.0839 55.1393 65.7485C55.1393 65.4131 55.4174 65.135 55.7528 65.135H57.0616C57.3969 65.135 57.6751 65.4131 57.6751 65.7485C57.6751 66.0839 57.3969 66.362 57.0616 66.362Z" fill="#6979F8"/>
<path opacity="0.3" d="M62.1332 66.3615H60.6608C60.3254 66.3615 60.0473 66.0834 60.0473 65.748C60.0473 65.4126 60.3254 65.1345 60.6608 65.1345H62.1332C62.4685 65.1345 62.7466 65.4126 62.7466 65.748C62.7466 66.0834 62.4685 66.3615 62.1332 66.3615Z" fill="#6979F8"/>
</g>
<g opacity="0.3">
<path opacity="0.3" d="M58.902 69.5924C58.5667 69.5924 58.2885 69.3143 58.2885 68.9789V67.6701C58.2885 67.3348 58.5667 67.0566 58.902 67.0566C59.2374 67.0566 59.5155 67.3348 59.5155 67.6701V68.9789C59.5155 69.3143 59.2374 69.5924 58.902 69.5924Z" fill="#6979F8"/>
<path opacity="0.3" d="M58.902 64.6847C58.5667 64.6847 58.2885 64.4066 58.2885 64.0712V62.5988C58.2885 62.2635 58.5667 61.9854 58.902 61.9854C59.2374 61.9854 59.5155 62.2635 59.5155 62.5988V64.0712C59.5155 64.4066 59.2374 64.6847 58.902 64.6847Z" fill="#6979F8"/>
</g>
</g>
<g opacity="0.3">
<g opacity="0.3">
<path opacity="0.3" d="M76.2027 17.9367H74.8939C74.5585 17.9367 74.2804 17.6586 74.2804 17.3232C74.2804 16.9878 74.5585 16.7097 74.8939 16.7097H76.2027C76.538 16.7097 76.8162 16.9878 76.8162 17.3232C76.8162 17.6586 76.538 17.9367 76.2027 17.9367Z" fill="#6979F8"/>
<path opacity="0.3" d="M81.2742 17.9367H79.8018C79.4664 17.9367 79.1883 17.6586 79.1883 17.3232C79.1883 16.9878 79.4664 16.7097 79.8018 16.7097H81.2742C81.6096 16.7097 81.8877 16.9878 81.8877 17.3232C81.8877 17.6586 81.6096 17.9367 81.2742 17.9367Z" fill="#6979F8"/>
</g>
<g opacity="0.3">
<path opacity="0.3" d="M78.0431 21.1676C77.7077 21.1676 77.4296 20.8895 77.4296 20.5541V19.2453C77.4296 18.91 77.7077 18.6318 78.0431 18.6318C78.3785 18.6318 78.6566 18.91 78.6566 19.2453V20.5541C78.6566 20.8895 78.3785 21.1676 78.0431 21.1676Z" fill="#6979F8"/>
<path opacity="0.3" d="M78.0431 16.2594C77.7077 16.2594 77.4296 15.9813 77.4296 15.6459V14.1736C77.4296 13.8382 77.7077 13.5601 78.0431 13.5601C78.3785 13.5601 78.6566 13.8382 78.6566 14.1736V15.6459C78.6566 15.9813 78.3785 16.2594 78.0431 16.2594Z" fill="#6979F8"/>
</g>
</g>
<path opacity="0.3" d="M14.3704 73.4781C13.2743 73.4781 12.3827 72.5865 12.3827 71.4904C12.3827 70.3943 13.2743 69.5027 14.3704 69.5027C15.4665 69.5027 16.3581 70.3943 16.3581 71.4904C16.3581 72.5865 15.4665 73.4781 14.3704 73.4781ZM14.3704 70.7297C13.9532 70.7297 13.6097 71.0732 13.6097 71.4904C13.6097 71.9076 13.9532 72.2512 14.3704 72.2512C14.7876 72.2512 15.1311 71.9076 15.1311 71.4904C15.1311 71.0651 14.7876 70.7297 14.3704 70.7297Z" fill="#6979F8"/>
<path opacity="0.3" d="M79.8018 34.9996C78.7057 34.9996 77.8141 34.108 77.8141 33.0119C77.8141 31.9158 78.7057 31.0242 79.8018 31.0242C80.8979 31.0242 81.7895 31.9158 81.7895 33.0119C81.7895 34.108 80.8979 34.9996 79.8018 34.9996ZM79.8018 32.2512C79.3846 32.2512 79.0411 32.5947 79.0411 33.0119C79.0411 33.4291 79.3846 33.7726 79.8018 33.7726C80.219 33.7726 80.5625 33.4291 80.5625 33.0119C80.5625 32.5947 80.219 32.2512 79.8018 32.2512Z" fill="#6979F8"/>
</g>
<g opacity="0.3">
<path opacity="0.3" d="M67.0166 15.5236C66.8939 15.5236 66.763 15.4827 66.6567 15.4091C65.4788 14.5502 64.2436 13.7568 62.9757 13.0451C62.6812 12.8815 62.5749 12.5052 62.7385 12.2108C62.9021 11.9163 63.2783 11.8099 63.5728 11.9735C64.8816 12.7097 66.1577 13.5277 67.3683 14.4193C67.6383 14.6157 67.7037 15.0001 67.4992 15.2782C67.3929 15.4337 67.2047 15.5236 67.0166 15.5236Z" fill="#6979F8"/>
<path opacity="0.3" d="M33.2169 9.94479C32.9552 9.94479 32.7098 9.77301 32.628 9.51125C32.5298 9.18405 32.7098 8.84049 33.0288 8.74233C36.7588 7.58896 40.6361 7 44.5707 7C47.6464 7 50.7057 7.35992 53.6668 8.07157C53.994 8.15337 54.1985 8.48057 54.1167 8.80777C54.0349 9.13497 53.7077 9.33947 53.3805 9.25767C50.5093 8.57873 47.5482 8.22699 44.5707 8.22699C40.7588 8.22699 37.0042 8.79141 33.405 9.91207C33.3396 9.93661 33.2742 9.94479 33.2169 9.94479Z" fill="#6979F8"/>
<path opacity="0.3" d="M18.3703 18.6405C18.2067 18.6405 18.0431 18.5751 17.9204 18.4442C17.6914 18.1988 17.6996 17.8062 17.945 17.5771C18.5503 17.0045 19.1883 16.4401 19.8264 15.9084C20.0881 15.6957 20.4726 15.7284 20.6934 15.9902C20.9061 16.252 20.8734 16.6364 20.6116 16.8573C19.99 17.3726 19.3765 17.9125 18.7875 18.4687C18.673 18.5832 18.5176 18.6405 18.3703 18.6405Z" fill="#6979F8"/>
<path opacity="0.3" d="M6.70572 51.2537C6.40306 51.2537 6.13312 51.0247 6.1004 50.7138C5.89591 49.086 5.78957 47.4337 5.78957 45.7813C5.78957 44.1371 5.89591 42.493 6.1004 40.8733C6.73026 35.8508 8.31717 31.0738 10.8202 26.6811C10.9838 26.3866 11.3601 26.2803 11.6546 26.4521C11.9491 26.6157 12.0554 26.992 11.8836 27.2864C9.47055 31.5482 7.93272 36.1699 7.31922 41.0288C7.1229 42.5911 7.02474 44.1944 7.02474 45.7813C7.02474 47.3764 7.1229 48.9879 7.3274 50.5584C7.3683 50.8938 7.13108 51.2046 6.7957 51.2455C6.7548 51.2455 6.73026 51.2537 6.70572 51.2537Z" fill="#6979F8"/>
<path opacity="0.3" d="M25.5032 79.4748C25.3969 79.4748 25.2905 79.4502 25.2006 79.393C23.7118 78.5341 22.2639 77.5689 20.9061 76.5136C20.6361 76.3091 20.5871 75.9247 20.7916 75.6547C20.9961 75.3848 21.3805 75.3357 21.6505 75.5402C22.9674 76.5545 24.3662 77.4952 25.8141 78.3296C26.1085 78.5014 26.2067 78.8777 26.0349 79.1639C25.9204 79.3603 25.7159 79.4748 25.5032 79.4748Z" fill="#6979F8"/>
<path opacity="0.3" d="M44.5708 84.5623C41.1106 84.5623 37.6833 84.1042 34.3786 83.2126C34.0514 83.1226 33.855 82.7872 33.945 82.46C34.035 82.1328 34.3704 81.9365 34.6976 82.0265C37.8959 82.8936 41.217 83.3353 44.5708 83.3353C47.2783 83.3353 49.9859 83.049 52.6035 82.4764C52.9307 82.4028 53.2579 82.6155 53.3315 82.9427C53.4051 83.2699 53.1924 83.597 52.8652 83.6707C50.1577 84.2678 47.3683 84.5623 44.5708 84.5623Z" fill="#6979F8"/>
<path opacity="0.3" d="M63.2784 79.6711C63.0657 79.6711 62.853 79.5566 62.7467 79.3602C62.5831 79.0658 62.6812 78.6895 62.9839 78.5259C63.9001 78.0106 64.808 77.4461 65.6751 76.8572C65.9532 76.669 66.3377 76.7427 66.5258 77.0208C66.714 77.2989 66.6403 77.6834 66.3622 77.8715C65.4624 78.485 64.5299 79.0658 63.581 79.5975C63.4829 79.6465 63.3847 79.6711 63.2784 79.6711Z" fill="#6979F8"/>
<path opacity="0.3" d="M72.8898 71.9897C72.7425 71.9897 72.5953 71.9407 72.4808 71.8343C72.2272 71.6053 72.2108 71.2208 72.4399 70.9673C76.628 66.3374 79.6137 60.6932 81.0779 54.6564C81.1597 54.3292 81.4869 54.1247 81.8223 54.2065C82.1495 54.2883 82.354 54.6155 82.2722 54.9509C80.7589 61.184 77.675 67.0082 73.356 71.7934C73.2251 71.9161 73.0534 71.9897 72.8898 71.9897Z" fill="#6979F8"/>
<path opacity="0.3" d="M82.7384 46.3947C82.4031 46.3947 82.1249 46.1166 82.1249 45.7812C82.1249 44.6523 82.0759 43.5153 81.9777 42.3947C81.8959 41.4785 81.7814 40.5542 81.6341 39.6544C81.5769 39.319 81.8059 39.0082 82.1413 38.9509C82.4767 38.8937 82.7875 39.1227 82.8448 39.4581C83.0002 40.3906 83.1229 41.3476 83.2047 42.2883C83.311 43.4417 83.3601 44.6196 83.3601 45.7894C83.3519 46.1247 83.0738 46.3947 82.7384 46.3947Z" fill="#6979F8"/>
</g>
<mask id="mask0" mask-type="alpha" maskUnits="userSpaceOnUse" x="12" y="13" width="65" height="65">
<circle cx="44.5" cy="45.5" r="32.5" fill="#A7C7FF"/>
</mask>
<g mask="url(#mask0)">
<path d="M79.871 32.3248L71.6564 36.2043L78.9267 30.7797C77.7451 28.9393 76.4177 27.1962 74.9571 25.5673L39.3313 34.4032L71.5115 22.154C70.0409 20.8594 68.4793 19.6716 66.8385 18.5999L12.553 27.325C6.78929 34.517 7.82586 62.2915 7.82142 71.5003L81.6428 71.9646C81.6395 64.8227 83.4614 38.5031 79.871 32.3248Z" fill="#F2F2F2"/>
<path d="M62.3956 16.0813C56.8221 13.3688 50.7011 11.9632 44.5 11.972C31.8793 11.972 20.5957 17.6824 13.1011 26.6547C25.9349 23.8487 48.2795 18.9915 62.3956 16.0813Z" fill="#F2F2F2"/>
<path d="M55.0757 74.3563H61.5632L59.4083 70.8808L57.8901 70.7546L58.7796 69.867L53.3584 61.1236V59.6956H52.6293L48.2065 49.1284L48.9698 48.0812L48.2065 47.51H47.7828L45.3068 25.0906H45.6783L46.2507 23.4722V20.3306H45.4875V18.8074H44.5334V15.8562H44.3426V13.0002H44.1518V15.8562H43.8656V18.8074H43.007V20.3306H42.1483V23.4722L42.8161 25.0906H43.2021L41.3453 47.51H41.3374L40.0971 47.8908L40.7649 49.0332L40.8126 49.1284H40.7649L37.052 59.6956H36.0901L36.1855 61.1236L28.1715 74.3563H34.7544V72.8331H34.3728C34.3728 72.8331 35.6131 64.4555 44.5811 63.6939C53.74 63.5035 55.4573 72.6427 55.4573 72.6427H55.0757V74.3563ZM59.5438 71.2623L59.7982 72.1508L58.6534 71.3892L59.5438 71.2623ZM58.1445 71.5162L59.5438 72.4047L58.0173 72.2778L58.1445 71.5162ZM56.4908 72.4047L57.3813 71.3892L57.7629 72.4047H56.4908ZM55.0007 66.7879L55.3278 67.5495L53.9104 66.7879H55.0007ZM54.5782 66.2983L54.6872 65.6455L55.8866 66.4071L54.5782 66.2983ZM56.618 69.7391L56.9997 70.6276L55.346 69.7391H56.618ZM54.8917 69.0727L55.6549 68.2023L55.982 69.0727H54.8917ZM56.2001 68.9639L56.3091 68.3111L57.5085 69.0727L56.2001 68.9639ZM57.5085 70.7546L56.9997 69.7391H58.3989L57.5085 70.7546ZM57.7266 68.8551L56.7453 68.2023L57.5085 68.0935L57.7266 68.8551ZM57.3995 67.7671L56.0911 67.6583L56.8543 66.8967L57.3995 67.7671ZM55.7639 67.6583L55.3278 66.7879H56.5272L55.7639 67.6583ZM56.1047 66.1895L55.1234 65.5367L55.8866 65.4279L56.1047 66.1895ZM55.7776 65.1015L54.4692 64.9927L55.2324 64.2311L55.7776 65.1015ZM54.1421 64.9927L53.7059 64.1223H54.9053L54.1421 64.9927ZM52.6701 63.5375L52.7791 62.8847L53.9785 63.6463L52.6701 63.5375ZM53.7059 64.8839L52.2885 64.1223H53.3788L53.7059 64.8839ZM54.1966 63.4287L53.2153 62.7759L53.9785 62.6671L54.1966 63.4287ZM53.8695 62.3408L52.5611 62.232L53.3243 61.4704L53.8695 62.3408ZM52.9972 61.3616L52.234 62.2319L51.7978 61.3616H52.9972ZM51.7978 62.1232L50.3804 61.3616H51.4707L51.7978 62.1232ZM41.0833 59.6956L43.0547 50.9372H46.1076L48.717 59.6956H41.0833ZM47.7908 62.2184L46.3734 61.4568H47.4637L47.7908 62.2184ZM45.283 62.028L44.9014 62.4631L44.6833 62.028H45.283ZM44.6833 62.4088L43.9746 62.028H44.5198L44.6833 62.4088ZM39.954 56.9824L41.3851 56.1256L41.0035 57.744L39.954 56.9824ZM40.7172 57.9344H38.4275L39.6678 57.1728L40.7172 57.9344ZM44.2289 27.5584L43.8252 27.9612L43.4216 27.5584H44.2289ZM43.4216 27.3827L43.8252 26.9799L44.2289 27.3827H43.4216ZM44.2289 28.5251H43.4216L43.8252 28.1223L44.2289 28.5251ZM43.906 28.0418L44.3096 27.639V28.4445L43.906 28.0418ZM44.2949 28.8986V29.8505L43.8179 29.3746L44.2949 28.8986ZM43.906 26.8994L44.3096 26.4966V27.3021L43.906 26.8994ZM44.0087 25.8522L44.3267 25.5348V26.1695L44.0087 25.8522ZM44.2631 26.233H43.6271L43.9451 25.9156L44.2631 26.233ZM43.9451 25.7887L43.6271 25.4714H44.2631L43.9451 25.7887ZM43.8815 25.8522L43.5635 26.1695V25.5348L43.8815 25.8522ZM44.2289 26.416L43.8252 26.8188L43.4216 26.416H44.2289ZM43.7445 26.8994L43.3409 27.3021V26.4966L43.7445 26.8994ZM43.7445 28.0418L43.3409 28.4445V27.639L43.7445 28.0418ZM44.1995 28.8034L43.7225 29.2794L43.2455 28.8034H44.1995ZM44.1995 29.9457H43.2455L43.7225 29.4698L44.1995 29.9457ZM44.2949 30.3265V31.2785L43.8179 30.8025L44.2949 30.3265ZM44.1995 30.2313L43.7225 30.7073L43.2455 30.2313H44.1995ZM44.1995 31.3737H43.2455L43.7225 30.8977L44.1995 31.3737ZM44.2729 31.8351V33.0068L43.6858 32.4209L44.2729 31.8351ZM44.1555 33.1239H42.9813L43.5684 32.5381L44.1555 33.1239ZM44.2729 33.5487V34.7204L43.6858 34.1345L44.2729 33.5487ZM44.1555 33.4315L43.5684 34.0174L42.9813 33.4315H44.1555ZM44.1555 34.8375H42.9813L43.5684 34.2517L44.1555 34.8375ZM44.2472 35.3245V36.7525L43.5317 36.0385L44.2472 35.3245ZM44.1041 36.8953H42.673L43.3886 36.1813L44.1041 36.8953ZM44.2472 37.4189V38.8469L43.5317 38.1329L44.2472 37.4189ZM44.1041 37.2761L43.3886 37.9901L42.673 37.2761H44.1041ZM44.1041 38.9897H42.673L43.3886 38.2757L44.1041 38.9897ZM44.2215 39.5755V41.2598L43.3776 40.4177L44.2215 39.5755ZM44.0527 41.4283H42.3648L43.2088 40.5861L44.0527 41.4283ZM44.1995 42.3217V44.2257L43.2455 43.2737L44.1995 42.3217ZM44.0087 44.4161H42.1006L43.0547 43.4641L44.0087 44.4161ZM44.1848 45.1996V47.2501L43.1574 46.2248L44.1848 45.1996ZM43.9793 44.9946L42.9519 46.0198L41.9245 44.9946H43.9793ZM43.9793 47.4551H41.9245L42.9519 46.4299L43.9793 47.4551ZM41.6713 53.46H39.7632L40.908 52.7936L41.6713 53.46ZM41.0989 52.6032L42.3391 51.8416L42.0529 53.5552L41.0989 52.6032ZM41.8621 53.936L41.5759 55.5544L40.8126 54.6976L41.8621 53.936ZM41.3851 53.7456L40.431 54.5072L39.7632 53.7456H41.3851ZM41.2897 55.6496H39.2862L40.3356 54.888L41.2897 55.6496ZM41.9439 61.3616L41.5077 62.2319L40.7445 61.3616H41.9439ZM42.271 61.3616H43.3613L41.9439 62.1232L42.271 61.3616ZM49.452 56.7643L48.4568 57.5953L47.9659 56.0065L49.452 56.7643ZM47.7366 55.4495L47.3409 53.8543L48.4398 54.543L47.7366 55.4495ZM48.9286 54.7006L50.0275 55.3893L48.0287 55.5251L48.9286 54.7006ZM48.8075 54.3272L47.8038 53.632L49.422 53.522L48.8075 54.3272ZM47.4988 53.3665L48.2149 52.6499L49.4025 53.2371L47.4988 53.3665ZM47.1246 53.4873L46.7223 51.7971L48.0116 52.4728L47.1246 53.4873ZM44.8013 47.4551L45.8287 46.4299L46.8562 47.4551H44.8013ZM44.5958 47.2501V45.1996L45.6232 46.2248L44.5958 47.2501ZM44.8013 44.9946H46.8562L45.8287 46.0198L44.8013 44.9946ZM44.7719 44.4161L45.726 43.4641L46.68 44.4161L44.7719 44.4161ZM44.5811 44.2257V42.3217L45.5352 43.2737L44.5811 44.2257ZM44.5591 41.2598V39.5755L45.4031 40.4177L44.5591 41.2598ZM45.5719 40.5861L46.4158 41.4283H44.7279L45.5719 40.5861ZM44.8747 28.0418L44.471 28.4445V27.639L44.8747 28.0418ZM44.5518 27.5584H45.359L44.9554 27.9612L44.5518 27.5584ZM44.4857 30.3265L44.9628 30.8025L44.4857 31.2785V30.3265ZM44.5811 30.2313H45.5352L45.0582 30.7073L44.5811 30.2313ZM44.5077 33.5487L45.0948 34.1345L44.5077 34.7204V33.5487ZM44.6252 33.4315H45.7994L45.2123 34.0174L44.6252 33.4315ZM44.5334 37.4189L45.249 38.1329L44.5334 38.8469V37.4189ZM44.6765 37.2761H46.1076L45.3921 37.9901L44.6765 37.2761ZM45.3921 38.2757L46.1076 38.9897H44.6765L45.3921 38.2757ZM45.5352 38.1329L46.2507 37.4189V38.8469L45.5352 38.1329ZM44.6765 36.8953L45.3921 36.1813L46.1076 36.8953H44.6765ZM44.5334 36.7525V35.3245L45.249 36.0385L44.5334 36.7525ZM45.2123 34.2517L45.7994 34.8375H44.6252L45.2123 34.2517ZM45.3297 34.1345L45.9168 33.5487V34.7204L45.3297 34.1345ZM44.6252 33.1239L45.2123 32.5381L45.7994 33.1239H44.6252ZM44.5077 33.0068V31.8351L45.0949 32.4209L44.5077 33.0068ZM45.0582 30.8977L45.5352 31.3737H44.5811L45.0582 30.8977ZM45.1536 30.8025L45.6306 30.3265V31.2785L45.1536 30.8025ZM44.5811 29.9457L45.0582 29.4697L45.5352 29.9457H44.5811ZM44.4857 29.8505V28.8985L44.9628 29.3745L44.4857 29.8505ZM44.9554 28.1223L45.3591 28.5251H44.5518L44.9554 28.1223ZM45.0361 28.0418L45.4398 27.639V28.4445L45.0361 28.0418ZM44.5518 27.3827L44.9554 26.9799L45.3591 27.3827H44.5518ZM44.4711 27.3021V26.4966L44.8747 26.8994L44.4711 27.3021ZM44.8991 25.8522L45.2172 25.5348V26.1695L44.8991 25.8522ZM45.1536 26.233H44.5175L44.8356 25.9156L45.1536 26.233ZM44.8356 25.7887L44.5175 25.4714H45.1536L44.8356 25.7887ZM44.7719 25.8522L44.4539 26.1695V25.5348L44.7719 25.8522ZM48.9902 61.4568L48.227 62.3271L47.7908 61.4568H48.9902ZM48.7553 57.7658L49.7505 56.9348L51.0398 57.6106L48.7553 57.7658ZM51.2107 57.3127L49.9149 56.542L50.6375 55.9204L51.2107 57.3127ZM49.6164 56.3714L48.4288 55.7842L50.3325 55.6548L49.6164 56.3714ZM50.1985 55.0914L49.1061 54.4977L49.7205 53.6926L50.1985 55.0914ZM49.4783 52.9457L48.3859 52.352L49.0068 51.6419L49.4783 52.9457ZM48.8986 51.4584L48.189 52.2699L46.8998 51.5942L48.8986 51.4584ZM47.0617 47.2501L46.0342 46.2248L47.0617 45.1996V47.2501ZM46.8709 44.2257L45.9168 43.2737L46.8709 42.3217V44.2257ZM45.726 43.0833L44.7719 42.1313H46.68L45.726 43.0833ZM46.5846 41.2598L45.7407 40.4177L46.5846 39.5755V41.2598ZM45.5719 40.2493L44.7279 39.4071H46.4158L45.5719 40.2493ZM46.2507 36.7525L45.5352 36.0385L46.2507 35.3245V36.7525ZM45.3921 35.8957L44.6765 35.1817H46.1076L45.3921 35.8957ZM45.9168 33.0068L45.3297 32.4209L45.9168 31.8351V33.0068ZM45.2123 32.3038L44.6252 31.7179H45.7994L45.2123 32.3038ZM45.6306 29.8505L45.1536 29.3745L45.6306 28.8986V29.8505ZM45.0582 29.2793L44.5811 28.8034H45.5352L45.0582 29.2793ZM45.4398 27.3021L45.0361 26.8994L45.4398 26.4966V27.3021ZM44.9554 26.8188L44.5518 26.416H45.3591L44.9554 26.8188ZM43.1501 28.8986L43.6271 29.3745L43.1501 29.8505V28.8986ZM43.1501 30.3265L43.6271 30.8025L43.1501 31.2785V30.3265ZM44.1555 31.7179L43.5684 32.3038L42.9813 31.7179H44.1555ZM42.8638 31.8351L43.451 32.4209L42.8638 33.0068V31.8351ZM42.8638 33.5487L43.451 34.1345L42.8638 34.7204V33.5487ZM44.1041 35.1817L43.3886 35.8957L42.673 35.1817H44.1041ZM42.5299 35.3245L43.2455 36.0385L42.5299 36.7525V35.3245ZM42.5299 37.4189L43.2455 38.1329L42.5299 38.8469V37.4189ZM44.0527 39.4071L43.2088 40.2493L42.3648 39.4071H44.0527ZM42.196 39.5755L43.04 40.4177L42.196 41.2598V39.5755ZM44.0087 42.1313L43.0547 43.0833L42.1006 42.1313H44.0087ZM41.9098 42.3217L42.8638 43.2737L41.9098 44.2257V42.3217ZM41.719 45.1996L42.7464 46.2248L41.719 47.2501V45.1996ZM42.1483 51.6512L40.908 52.4128L40.1448 51.6512L42.1483 51.6512ZM40.0494 51.8416L40.7172 52.508L39.6678 53.1744L40.0494 51.8416ZM39.477 53.936L40.1448 54.6976L39.0954 55.364L39.477 53.936ZM40.908 55.9352L39.7632 56.6016L38.9999 55.9352H40.908ZM38.7137 56.2208L39.477 56.792L38.2367 57.6488L38.7137 56.2208ZM39.2589 61.3616L37.8415 62.1232L38.1686 61.3616H39.2589ZM37.8415 61.3616L37.4053 62.2319L36.6421 61.3616H37.8415ZM36.315 61.4704L37.0782 62.2319L35.7698 62.3408L36.315 61.4704ZM37.5416 64.1223L36.1242 64.8839L36.4513 64.1223H37.5416ZM35.6608 63.6463L36.8602 62.8847L36.9692 63.5375L35.6608 63.6463ZM35.6608 62.6671L36.424 62.7759L35.4427 63.4287L35.6608 62.6671ZM36.1242 64.1223L35.688 64.9927L34.9248 64.1223H36.1242ZM34.5977 64.2311L35.3609 64.9927L34.0525 65.1015L34.5977 64.2311ZM34.4841 69.7391L32.8304 70.6276L33.212 69.7391H34.4841ZM32.3216 69.0727L33.521 68.3111L33.63 68.9639L32.3216 69.0727ZM33.8481 69.0727L34.1752 68.2023L34.9384 69.0727H33.8481ZM35.9197 66.7879L34.5023 67.5495L34.8294 66.7879H35.9197ZM33.9435 66.4071L35.1429 65.6455L35.2519 66.2983L33.9435 66.4071ZM33.9435 65.4279L34.7067 65.5367L33.7254 66.1895L33.9435 65.4279ZM34.5023 66.7879L34.0661 67.6583L33.3029 66.7879H34.5023ZM32.9758 66.8967L33.739 67.6583L32.4306 67.7671L32.9758 66.8967ZM32.3216 68.0935L33.0848 68.2023L32.1035 68.8551L32.3216 68.0935ZM32.8304 69.7391L32.3216 70.7546L31.4312 69.7391H32.8304ZM30.2863 71.2623L31.1767 71.3892L30.0319 72.1508L30.2863 71.2623ZM30.2863 72.4047L31.6856 71.5162L31.8128 72.2778L30.2863 72.4047ZM30.4135 70.8815L31.0495 69.866L31.94 70.7546L30.4135 70.8815ZM32.0672 72.4047L32.4488 71.3892L33.3393 72.4047H32.0672ZM33.8481 72.2778L32.9576 71.2623L34.4841 71.1354L33.8481 72.2778ZM34.6113 70.7546H33.2121L34.9929 69.866L34.6113 70.7546ZM35.3746 68.9639L34.6113 68.0935L35.9197 67.9847L35.3746 68.9639ZM36.0288 67.6583H34.8294L36.3559 66.8967L36.0288 67.6583ZM35.47 66.4071L35.7971 65.5367L36.5603 66.4071H35.47ZM36.9964 66.2983L36.2332 65.4279L37.5416 65.3191L36.9964 66.2983ZM37.6506 64.9927H36.4513L37.9778 64.2311L37.6506 64.9927ZM37.1873 63.6463L37.5144 62.7759L38.2776 63.6463H37.1873ZM38.7137 63.5375L37.9505 62.6671L39.2589 62.5583L38.7137 63.5375ZM38.1686 62.2319L39.695 61.4704L39.3679 62.2319H38.1686ZM39.7632 62.6672L40.5264 62.7759L39.5451 63.4287L39.7632 62.6672ZM39.7632 63.6463L40.9626 62.8848L41.0716 63.5375L39.7632 63.6463ZM39.8722 62.3408L40.4174 61.4704L41.1806 62.232L39.8722 62.3408ZM41.2897 63.6463L41.6168 62.7759L42.38 63.6463H41.2897ZM42.8161 63.5375L42.0529 62.6672L43.3613 62.5584L42.8161 63.5375ZM42.271 62.232L43.7974 61.4704L43.4703 62.232H42.271ZM43.7566 62.0824L44.5198 62.4632H43.9201L43.7566 62.0824ZM43.9746 62.6264L44.6288 62.6807L44.2472 63.1159L43.9746 62.6264ZM44.4653 63.1704L44.8469 62.7351L45.0105 63.1704H44.4653ZM45.4466 62.0824L45.7192 62.5176L45.065 62.4632L45.4466 62.0824ZM45.1195 63.1159L45.174 62.7895L45.7737 63.1704L45.1195 63.1159ZM45.3921 62.7351L45.7737 62.6807L45.8827 63.0615L45.3921 62.7351ZM45.9373 61.5656L47.4637 62.3271H46.2643L45.9373 61.5656ZM46.3734 62.6536L47.6818 62.7624L46.9186 63.6327L46.3734 62.6536ZM47.3547 63.7415L48.1179 62.8712L48.445 63.7415H47.3547ZM49.3173 61.5656L49.8625 62.436L48.5541 62.3272L49.3173 61.5656ZM48.6631 63.6327L48.7721 62.98L49.9715 63.7415L48.6631 63.6327ZM49.2083 62.8712L49.9715 62.7624L50.1896 63.5239L49.2083 62.8712ZM49.9443 61.4704L51.4707 62.232H50.2714L49.9443 61.4704ZM50.3804 62.5583L51.6888 62.6672L50.9256 63.5375L50.3804 62.5583ZM52.1249 62.776L52.452 63.6464H51.3617L52.1249 62.776ZM52.1795 64.9927L51.8524 64.2311L53.3788 64.9927H52.1795ZM52.2885 65.3191L53.5969 65.4279L52.8337 66.2983L52.2885 65.3191ZM54.033 65.5367L54.3601 66.4071H53.2698L54.033 65.5367ZM53.4742 66.8967L55.0007 67.6583H53.8013L53.4742 66.8967ZM53.9104 67.9847L55.2188 68.0935L54.4555 68.9639L53.9104 67.9847ZM54.8372 69.866L56.618 70.7546H55.2188L54.8372 69.866ZM55.346 71.1354L56.8725 71.2623L55.982 72.2778L55.346 71.1354Z" fill="#3F3D56"/>
<path opacity="0.1" d="M43.7702 20.7114H42.5299V21.2826H43.7702V20.7114Z" fill="black"/>
<path opacity="0.1" d="M45.7737 20.7114H44.5334V21.2826H45.7737V20.7114Z" fill="black"/>
<path d="M68.4668 72.1777C67.3391 71.987 66.2545 71.8233 65.2131 71.6865L65.6248 70.89C65.486 70.8419 64.8761 71.298 64.8761 71.298L65.4163 68.986C64.7181 69.07 64.3632 71.4307 64.3632 71.4307L63.5831 70.6326L63.9607 71.5299C61.2212 71.1994 58.4649 71.0263 55.7055 71.0115L56.0579 70.3297C55.919 70.2816 55.3091 70.7378 55.3091 70.7378L55.8494 68.4257C55.1512 68.5098 54.7962 70.8705 54.7962 70.8705L54.0162 70.0723L54.4162 71.0227C52.8298 71.0489 51.2459 71.1562 49.6706 71.3444C50.027 70.2824 51.2377 69.2724 51.2377 69.2724C50.3131 69.5468 49.8281 70.0066 49.5746 70.4353C49.552 68.2441 49.9171 66.066 50.6533 64.0015C50.6533 64.0015 48.7421 68.1513 48.986 70.9369L49.0151 71.4316C47.3949 71.6631 46.5803 71.9039 46.5803 71.9039L68.4668 72.1777Z" fill="#3F3D56"/>
<path d="M43.1845 72.029C42.0568 71.8383 40.9722 71.6746 39.9308 71.5378L40.3425 70.7413C40.2036 70.6932 39.5937 71.1493 39.5937 71.1493L40.134 68.8373C39.4358 68.9213 39.0808 71.282 39.0808 71.282L38.3008 70.4839L38.6784 71.3812C35.9389 71.0507 33.1826 70.8776 30.4232 70.8628L30.7756 70.1811C30.6367 70.1329 30.0268 70.5891 30.0268 70.5891L30.5671 68.2771C29.8689 68.3611 29.5139 70.7218 29.5139 70.7218L28.7339 69.9236L29.1339 70.8741C27.5475 70.9002 25.9636 71.0075 24.3883 71.1957C24.7447 70.1337 25.9554 69.1237 25.9554 69.1237C25.0308 69.3981 24.5458 69.8579 24.2923 70.2866C24.2697 68.0954 24.6348 65.9174 25.3709 63.8528C25.3709 63.8528 23.4598 68.0027 23.7037 70.7882L23.7328 71.2829C22.1126 71.5144 21.298 71.7552 21.298 71.7552L43.1845 72.029Z" fill="#3F3D56"/>
<path d="M70.508 72.9246C70.508 74.1906 58.717 78.0003 44.1721 78.0003C29.6271 78.0003 17.8361 74.1906 17.8361 72.9246C17.8361 71.6586 29.6271 73.4158 44.1721 73.4158C58.717 73.4158 70.508 71.6586 70.508 72.9246Z" fill="#3F3D56"/>
<path opacity="0.1" d="M70.508 72.9246C70.508 74.1906 58.717 78.0003 44.1721 78.0003C29.6271 78.0003 17.8361 74.1906 17.8361 72.9246C17.8361 71.6586 29.6271 73.4158 44.1721 73.4158C58.717 73.4158 70.508 71.6586 70.508 72.9246Z" fill="black"/>
<path d="M44.1721 75.2166C58.717 75.2166 70.508 74.1903 70.508 72.9244C70.508 71.6584 58.717 70.6321 44.1721 70.6321C29.6271 70.6321 17.8361 71.6584 17.8361 72.9244C17.8361 74.1903 29.6271 75.2166 44.1721 75.2166Z" fill="#3F3D56"/>
<path opacity="0.1" d="M45.6899 73.6612C57.9919 73.6612 67.9647 73.0748 67.9647 72.3514C67.9647 71.628 57.9919 71.0415 45.6899 71.0415C33.3879 71.0415 23.4151 71.628 23.4151 72.3514C23.4151 73.0748 33.3879 73.6612 45.6899 73.6612Z" fill="black"/>
<path d="M37.6876 63.9534C37.7244 69.1688 34.63 71.0114 30.7975 71.0383C30.7085 71.0389 30.6198 71.0386 30.5317 71.0372C30.354 71.0346 30.1782 71.0278 30.0042 71.0167C26.5434 70.7966 23.8423 68.9012 23.8081 64.0509C23.7726 59.0314 30.157 52.6517 30.6359 52.18C30.6363 52.18 30.6363 52.18 30.6367 52.1796C30.6549 52.1616 30.6642 52.1526 30.6642 52.1526C30.6642 52.1526 37.6508 58.7384 37.6876 63.9534Z" fill="#488BFF"/>
<path d="M30.5393 70.2421L33.0525 66.6856L30.5356 70.6306L30.5317 71.037C30.354 71.0344 30.1782 71.0276 30.0042 71.0165L30.2408 65.797L30.2384 65.7567L30.243 65.749L30.2656 65.2558L27.6868 61.3367L30.2706 64.8864L30.2777 64.9909L30.4565 61.0474L28.244 56.9944L30.4784 60.3544L30.6359 52.1798L30.6365 52.1526L30.6367 52.1794L30.6464 58.625L32.8019 56.0545L30.641 59.1802L30.6084 62.7104L32.6149 59.3087L30.604 63.2294L30.5859 65.1923L33.4992 60.4565L30.5792 65.8771L30.5393 70.2421Z" fill="#3F3D56"/>
<path d="M67.2326 70.218C66.2043 70.8231 65.7995 72.0394 65.7995 72.0394C65.7995 72.0394 67.0621 72.2746 68.0904 71.6696C69.1188 71.0645 69.5235 69.8483 69.5235 69.8483C69.5235 69.8483 68.261 69.613 67.2326 70.218Z" fill="#3F3D56"/>
<path d="M67.593 70.5932C67.0171 71.6367 65.8107 72.0762 65.8107 72.0762C65.8107 72.0762 65.5379 70.8238 66.1137 69.7803C66.6896 68.7368 67.896 68.2974 67.896 68.2974C67.896 68.2974 68.1688 69.5497 67.593 70.5932Z" fill="#6C63FF"/>
</g>
</g>
<defs>
<clipPath id="clip0">
<rect width="90" height="90" fill="white"/>
</clipPath>
</defs>
</svg>
