<svg width="129" height="123" viewBox="0 0 129 123" fill="none" xmlns="http://www.w3.org/2000/svg">
<path d="M0.00216086 48.5C-0.397839 11.3 54.8355 0.666667 82.5022 0C100.002 0 106.002 9.5 101.502 16C92.7875 28.5879 90.2362 35.4588 101.502 42.5C105.502 45 136.402 59 126.002 89C115.602 119 51.0022 114.5 46.5022 113.5C33.0022 111 0.402161 85.7 0.00216086 48.5Z" fill="#E8F2FF"/>
<path d="M11.4877 5.68641C9.24412 5.66957 13.297 1.69598 15.2632 1.1539C19.4366 0.00333917 19.6435 3.31629 19.6716 5.23718C19.6997 7.15807 17.4751 8.92329 15.5642 8.34856C12.8884 7.54381 14.9352 5.71228 11.4877 5.68641Z" fill="#E8F2FF"/>
<circle cx="85.0022" cy="120" r="3" fill="#E2ECF9"/>
<circle cx="101.502" cy="34.5" r="1.5" fill="#E2ECF9"/>
<mask id="mask0" mask-type="alpha" maskUnits="userSpaceOnUse" x="0" y="0" width="129" height="123">
<path d="M0.00216086 48.5C-0.397839 11.3 54.8355 0.666667 82.5022 0C100.002 0 106.002 9.5 101.502 16C92.7875 28.5879 90.2362 35.4588 101.502 42.5C105.502 45 136.402 59 126.002 89C115.602 119 51.0022 114.5 46.5022 113.5C33.0022 111 0.402161 85.7 0.00216086 48.5Z" fill="#E8F2FF"/>
<path d="M11.4877 5.68641C9.24412 5.66957 13.297 1.69598 15.2632 1.1539C19.4366 0.00333917 19.6435 3.31629 19.6716 5.23718C19.6997 7.15807 17.4751 8.92329 15.5642 8.34856C12.8884 7.54381 14.9352 5.71228 11.4877 5.68641Z" fill="#E8F2FF"/>
<circle cx="85.0022" cy="120" r="3" fill="#E2ECF9"/>
<circle cx="101.502" cy="34.5" r="1.5" fill="#E2ECF9"/>
</mask>
<g mask="url(#mask0)">
<path d="M69.078 20.0544C58.9651 23.9968 38.9449 34.9667 39.7677 47.3079C40.5846 59.5619 61.5794 66.2392 61.8758 66.3329C61.885 66.3358 61.8715 66.3313 61.8807 66.3345C62.1779 66.4377 101.888 80.285 75.2486 98.2153C48.5094 116.213 52.7125 102.944 53.6515 101.301C55.7084 97.7011 65.4178 97.8833 61.879 108.5C60.8505 111.585 58.7937 114.67 58.2795 115.699" stroke="#9DC7FF" stroke-width="2" stroke-linecap="round"/>
<rect width="54.5069" height="24.6824" rx="4" transform="matrix(-0.994899 -0.100872 -0.100872 0.994899 105.326 68.4401)" fill="#1D64DD"/>
<path d="M88.4005 97.7352L86.3541 97.5277L84.4186 91.1292L93.6273 92.0629L88.4005 97.7352Z" fill="#1D64DD"/>
<rect width="54.5069" height="24.6824" rx="4" transform="matrix(-0.994899 -0.100872 -0.100872 0.994899 103.279 68.2326)" fill="#4F99FC"/>
<rect width="54.5069" height="24.6824" rx="4" transform="matrix(-0.994899 -0.100872 -0.100872 0.994899 103.279 68.2326)" fill="#4F99FC"/>
<rect width="54.5069" height="24.6824" rx="4" transform="matrix(-0.994899 -0.100872 -0.100872 0.994899 103.279 68.2326)" fill="#4F99FC"/>
<path d="M86.3541 97.5277L82.3722 90.9218L91.5809 91.8554L86.3541 97.5277Z" fill="#4F99FC"/>
<path d="M86.3541 97.5277L82.3722 90.9218L91.5809 91.8554L86.3541 97.5277Z" fill="#4F99FC"/>
<path d="M86.3541 97.5277L82.3722 90.9218L91.5809 91.8554L86.3541 97.5277Z" fill="#4F99FC"/>
<rect width="11.3128" height="3.0853" rx="1.54265" transform="matrix(-0.994899 -0.100872 -0.100872 0.994899 99.5874 74.0605)" fill="#A7CDFF"/>
<rect width="25.7108" height="3.0853" rx="1.54265" transform="matrix(-0.994899 -0.100872 -0.100872 0.994899 99.0687 79.1764)" fill="#A7CDFF"/>
<rect width="7.19903" height="3.0853" rx="1.54265" transform="matrix(-0.994899 -0.100872 -0.100872 0.994899 71.4426 76.3754)" fill="#A7CDFF"/>
<path d="M76.9074 83.6486C76.9934 82.801 76.3759 82.0441 75.5283 81.9582L61.2036 80.5059C60.356 80.4199 59.5992 81.0374 59.5133 81.885C59.4273 82.7327 60.0448 83.4895 60.8924 83.5754L75.217 85.0278C76.0647 85.1137 76.8215 84.4962 76.9074 83.6486Z" fill="#A7CDFF"/>
<rect width="19.5402" height="3.0853" rx="1.54265" transform="matrix(-0.994899 -0.100872 -0.100872 0.994899 98.55 84.2924)" fill="#A7CDFF"/>
<rect width="34.9667" height="3.0853" rx="1.54265" transform="matrix(-0.994899 -0.100872 -0.100872 0.994899 86.2859 72.7119)" fill="#A7CDFF"/>
<rect x="12" y="36.7123" width="54.5069" height="24.6824" rx="4" transform="rotate(-5.88789 12 36.7123)" fill="#1D64DD"/>
<path d="M28.9756 65.9782L31.0216 65.7672L32.9461 59.3655L23.739 60.3149L28.9756 65.9782Z" fill="#1D64DD"/>
<rect x="14.046" y="36.5013" width="54.5069" height="24.6824" rx="4" transform="rotate(-5.88789 14.046 36.5013)" fill="#4F99FC"/>
<rect x="14.046" y="36.5013" width="54.5069" height="24.6824" rx="4" transform="rotate(-5.88789 14.046 36.5013)" fill="#4F99FC"/>
<rect x="14.046" y="36.5013" width="54.5069" height="24.6824" rx="4" transform="rotate(-5.88789 14.046 36.5013)" fill="#4F99FC"/>
<path d="M31.0216 65.7672L34.9921 59.1545L25.785 60.104L31.0216 65.7672Z" fill="#4F99FC"/>
<path d="M31.0216 65.7672L34.9921 59.1545L25.785 60.104L31.0216 65.7672Z" fill="#4F99FC"/>
<path d="M31.0216 65.7672L34.9921 59.1545L25.785 60.104L31.0216 65.7672Z" fill="#4F99FC"/>
<rect x="17.748" y="42.3228" width="11.3128" height="3.0853" rx="1.54265" transform="rotate(-5.88789 17.748 42.3228)" fill="#A7CDFF"/>
<rect x="18.2755" y="47.4379" width="25.7108" height="3.0853" rx="1.54265" transform="rotate(-5.88789 18.2755 47.4379)" fill="#A7CDFF"/>
<rect x="45.8967" y="44.5894" width="7.19903" height="3.0853" rx="1.54265" transform="rotate(-5.88789 45.8967 44.5894)" fill="#A7CDFF"/>
<path d="M40.4444 51.8719C40.357 51.0244 40.9732 50.2666 41.8207 50.1792L56.1428 48.7022C56.9903 48.6148 57.7481 49.231 57.8355 50.0784C57.9229 50.9259 57.3068 51.6838 56.4593 51.7712L42.1372 53.2482C41.2897 53.3356 40.5318 52.7194 40.4444 51.8719Z" fill="#A7CDFF"/>
<rect x="18.803" y="52.5529" width="19.5402" height="3.0853" rx="1.54265" transform="rotate(-5.88789 18.803 52.5529)" fill="#A7CDFF"/>
<rect x="31.0471" y="40.9513" width="34.9667" height="3.0853" rx="1.54265" transform="rotate(-5.88789 31.0471 40.9513)" fill="#A7CDFF"/>
<path d="M96.4883 4.9891L75.6833 15.1678L67.0629 12.6342L96.4883 4.9891Z" fill="#7CB4FF"/>
<path d="M96.4883 4.9891L75 22.5L75.6833 15.1678L96.4883 4.9891Z" fill="#2B5FB7"/>
<path d="M96.4883 4.9891L75 22.5L78.695 16.2902L96.4883 4.9891Z" fill="#14479D"/>
<path d="M96.4883 4.9891L87.0167 18.3902L78.695 16.2902L96.4883 4.9891Z" fill="#A7CDFF"/>
</g>
</svg>
