<svg width="64" height="64" viewBox="0 0 64 64" fill="none" xmlns="http://www.w3.org/2000/svg">
<circle cx="32" cy="32" r="32" fill="#1D64DD"/>
<circle cx="32" cy="32" r="26.9798" stroke="#7CB4FF" stroke-width="2"/>
<path d="M48.9655 23.6982C48.9655 24.7277 48.5568 25.7216 47.8138 26.4316L30.5389 42.9735C29.7588 43.6834 28.7186 44.1094 27.6412 44.1094C26.5638 44.1094 25.5236 43.6834 24.7806 42.9735L16.1246 34.7025C15.3816 33.9926 14.9729 32.9986 14.9729 31.9692C14.9729 30.9398 15.4187 29.9813 16.1617 29.2359C16.9419 28.5259 17.945 28.1354 19.0223 28.1C20.0997 28.1 21.1027 28.4904 21.8829 29.2004L27.6412 34.7025L42.0555 20.9294C42.8357 20.2195 43.8388 19.829 44.9161 19.829C45.9935 19.8645 46.9965 20.255 47.7767 21.0004C48.5197 21.7104 48.9655 22.6688 48.9655 23.6982Z" fill="#CFE4FF"/>
</svg>
