<svg width="129" height="123" viewBox="0 0 129 123" fill="none" xmlns="http://www.w3.org/2000/svg">
<path d="M0.00216086 48.5C-0.397839 11.3 54.8355 0.666667 82.5022 0C100.002 0 106.002 9.5 101.502 16C92.7875 28.5879 90.2362 35.4588 101.502 42.5C105.502 45 136.402 59 126.002 89C115.602 119 51.0022 114.5 46.5022 113.5C33.0022 111 0.402161 85.7 0.00216086 48.5Z" fill="#E8F2FF"/>
<path d="M11.4877 5.68641C9.24413 5.66957 13.297 1.69598 15.2632 1.1539C19.4366 0.00333917 19.6435 3.31629 19.6716 5.23718C19.6997 7.15807 17.4751 8.92329 15.5642 8.34856C12.8884 7.54381 14.9352 5.71228 11.4877 5.68641Z" fill="#E8F2FF"/>
<circle cx="85.0022" cy="120" r="3" fill="#E2ECF9"/>
<circle cx="101.502" cy="34.5" r="1.5" fill="#E2ECF9"/>
<mask id="mask0" mask-type="alpha" maskUnits="userSpaceOnUse" x="0" y="0" width="129" height="123">
<path d="M0.00216086 48.5C-0.397839 11.3 54.8355 0.666667 82.5022 0C100.002 0 106.002 9.5 101.502 16C92.7875 28.5879 90.2362 35.4588 101.502 42.5C105.502 45 136.402 59 126.002 89C115.602 119 51.0022 114.5 46.5022 113.5C33.0022 111 0.402161 85.7 0.00216086 48.5Z" fill="#E8F2FF"/>
<path d="M11.4877 5.68641C9.24413 5.66957 13.297 1.69598 15.2632 1.1539C19.4366 0.00333917 19.6435 3.31629 19.6716 5.23718C19.6997 7.15807 17.4751 8.92329 15.5642 8.34856C12.8884 7.54381 14.9352 5.71228 11.4877 5.68641Z" fill="#E8F2FF"/>
<circle cx="85.0022" cy="120" r="3" fill="#E2ECF9"/>
<circle cx="101.502" cy="34.5" r="1.5" fill="#E2ECF9"/>
</mask>
<g mask="url(#mask0)">
<path d="M67.2313 85.6226L82.9377 64.9139L95.6788 74.5773C100.079 77.9148 100.941 84.1875 97.6034 88.5879L97.0044 89.3776C91.9983 95.9782 82.5891 97.2707 75.9886 92.2645L67.2313 85.6226Z" fill="#1D64DD"/>
<path d="M72.4667 78.7197L88.1732 58.011L98.5275 65.8642C104.246 70.2014 105.366 78.3532 101.029 84.0718V84.0718C96.6914 89.7903 88.5396 90.9101 82.8211 86.5729L72.4667 78.7197Z" fill="#4F99FC"/>
<rect x="102.102" y="93.9471" width="3.92802" height="39.1841" transform="rotate(-52.8217 102.102 93.9471)" fill="#3680E3"/>
<rect x="102.874" y="89.6031" width="3.27335" height="41.1935" transform="rotate(-52.8217 102.874 89.6031)" fill="#1D64DD"/>
<rect x="56.1488" y="69.968" width="4.81318" height="15.4022" transform="rotate(-52.8217 56.1488 69.968)" fill="#4F99FC"/>
<rect x="59.0574" y="66.133" width="2.88791" height="15.4022" transform="rotate(-52.8217 59.0574 66.133)" fill="#1D64DD"/>
<rect x="64.2929" y="59.2301" width="4.81318" height="15.4022" transform="rotate(-52.8217 64.2929 59.2301)" fill="#4F99FC"/>
<rect x="67.2015" y="55.3952" width="2.88791" height="15.4022" transform="rotate(-52.8217 67.2015 55.3952)" fill="#1D64DD"/>
<rect x="68.2353" y="77.9268" width="28.8791" height="4.81318" transform="rotate(-52.8217 68.2353 77.9268)" fill="#3680E3"/>
<rect x="62.9999" y="84.8297" width="8.66373" height="4.81318" transform="rotate(-52.8217 62.9999 84.8297)" fill="#0D3C7C"/>
<path d="M92.5937 95.1931L104.81 79.0863L111.414 87.9012L102.863 99.176L92.5937 95.1931Z" fill="#41689D"/>
<rect x="88.5476" y="95.7489" width="25.9912" height="2.88791" transform="rotate(-52.8217 88.5476 95.7489)" fill="#0D3C7C"/>
<rect x="91.568" y="91.7665" width="20.9929" height="2.88791" transform="rotate(-52.8217 91.568 91.7665)" fill="#3680E3"/>
<rect x="93.5907" y="97.0645" width="21.9925" height="2.88791" transform="rotate(-52.8217 93.5907 97.0645)" fill="#0D3C7C"/>
<rect x="96.3212" y="93.4644" width="17.4741" height="2.88791" transform="rotate(-52.8217 96.3212 93.4644)" fill="#3680E3"/>
<rect x="98.6338" y="98.3801" width="17.9939" height="2.88791" transform="rotate(-52.8217 98.6338 98.3801)" fill="#0D3C7C"/>
<rect x="101.05" y="95.1942" width="13.9953" height="2.88791" transform="rotate(-52.8217 101.05 95.1942)" fill="#3680E3"/>
<path d="M42.5284 66.8868L58.2348 46.1781L45.4937 36.5146C41.0933 33.1772 34.8205 34.0388 31.4831 38.4392L30.8841 39.229C25.878 45.8295 27.1705 55.2386 33.771 60.2448L42.5284 66.8868Z" fill="#1D64DD"/>
<path d="M47.7638 59.9839L63.4702 39.2752L53.1159 31.4219C47.3973 27.0847 39.2455 28.2045 34.9083 33.9231V33.9231C30.5711 39.6416 31.6909 47.7934 37.4095 52.1306L47.7638 59.9839Z" fill="#4F99FC"/>
<rect width="3.92802" height="39.1841" transform="matrix(0.604298 -0.796758 -0.796758 -0.604298 25.1095 35.5526)" fill="#3680E3"/>
<rect width="3.27335" height="41.1935" transform="matrix(0.604298 -0.796758 -0.796758 -0.604298 29.0842 33.6372)" fill="#1D64DD"/>
<rect width="28.8791" height="4.81318" transform="matrix(0.604298 -0.796758 -0.796758 -0.604298 49.6683 63.8447)" fill="#3680E3"/>
<rect width="8.66373" height="4.81318" transform="matrix(0.604298 -0.796758 -0.796758 -0.604298 44.4329 70.7476)" fill="#0D3C7C"/>
<path d="M26.4734 45.0444L38.6895 28.9377L28.4202 24.9548L19.8689 36.2295L26.4734 45.0444Z" fill="#41689D"/>
<rect width="25.9912" height="2.88791" transform="matrix(0.604298 -0.796758 -0.796758 -0.604298 27.0292 49.0905)" fill="#0D3C7C"/>
<rect width="20.9929" height="2.88791" transform="matrix(0.604298 -0.796758 -0.796758 -0.604298 30.0497 45.1081)" fill="#3680E3"/>
<rect width="21.9925" height="2.88791" transform="matrix(0.604298 -0.796758 -0.796758 -0.604298 24.4025 44.589)" fill="#0D3C7C"/>
<rect width="17.4741" height="2.88791" transform="matrix(0.604298 -0.796758 -0.796758 -0.604298 27.1329 40.9888)" fill="#3680E3"/>
<rect width="17.9939" height="2.88791" transform="matrix(0.604298 -0.796758 -0.796758 -0.604298 21.7757 40.0874)" fill="#0D3C7C"/>
<rect width="13.9953" height="2.88791" transform="matrix(0.604298 -0.796758 -0.796758 -0.604298 24.1921 36.9015)" fill="#3680E3"/>
</g>
</svg>
