<svg width="129" height="123" viewBox="0 0 129 123" fill="none" xmlns="http://www.w3.org/2000/svg">
<path d="M0.00216086 48.5C-0.397839 11.3 54.8355 0.666667 82.5022 0C100.002 0 106.002 9.5 101.502 16C92.7875 28.5879 90.2362 35.4588 101.502 42.5C105.502 45 136.402 59 126.002 89C115.602 119 51.0022 114.5 46.5022 113.5C33.0022 111 0.402161 85.7 0.00216086 48.5Z" fill="#E8F2FF"/>
<path d="M11.4877 5.68641C9.24413 5.66957 13.297 1.69598 15.2632 1.1539C19.4366 0.00333917 19.6435 3.31629 19.6716 5.23718C19.6997 7.15807 17.4751 8.92329 15.5642 8.34856C12.8884 7.54381 14.9352 5.71228 11.4877 5.68641Z" fill="#E8F2FF"/>
<circle cx="85.0022" cy="120" r="3" fill="#E2ECF9"/>
<circle cx="101.502" cy="34.5" r="1.5" fill="#E2ECF9"/>
<mask id="mask0" mask-type="alpha" maskUnits="userSpaceOnUse" x="0" y="0" width="129" height="123">
<path d="M0.00216086 48.5C-0.397839 11.3 54.8355 0.666667 82.5022 0C100.002 0 106.002 9.5 101.502 16C92.7875 28.5879 90.2362 35.4588 101.502 42.5C105.502 45 136.402 59 126.002 89C115.602 119 51.0022 114.5 46.5022 113.5C33.0022 111 0.402161 85.7 0.00216086 48.5Z" fill="#E8F2FF"/>
<path d="M11.4877 5.68641C9.24413 5.66957 13.297 1.69598 15.2632 1.1539C19.4366 0.00333917 19.6435 3.31629 19.6716 5.23718C19.6997 7.15807 17.4751 8.92329 15.5642 8.34856C12.8884 7.54381 14.9352 5.71228 11.4877 5.68641Z" fill="#E8F2FF"/>
<circle cx="85.0022" cy="120" r="3" fill="#E2ECF9"/>
<circle cx="101.502" cy="34.5" r="1.5" fill="#E2ECF9"/>
</mask>
<g mask="url(#mask0)">
<path d="M52.0064 33.517L64.7059 43.9385L17.9552 93.8212L6.11756 81.9867L52.0064 33.517Z" fill="#4F99FC"/>
<path d="M64.7059 43.9385L79.4937 39.907L33.4869 89.0325L17.9552 93.8212L64.7059 43.9385Z" fill="#1D64DD"/>
<path d="M79.4937 39.907L89.7372 49.9459L44.3441 98.3594L33.4218 89.0551L79.4937 39.907Z" fill="#4F99FC"/>
<path d="M89.7372 49.9459L105.204 45.1798L59.8108 93.5934L44.3441 98.3594L89.7372 49.9459Z" fill="#1D64DD"/>
<path d="M105.204 45.1798L115.861 56.8836L69.845 106.038L59.8108 93.5934L105.204 45.1798Z" fill="#4F99FC"/>
<path d="M115.861 56.8836L130.726 52.1561L85.1689 101.048L69.7889 106.032L115.861 56.8836Z" fill="#1D64DD"/>
<path d="M18.0233 94.0951L5.84729 82.0545L51.7241 33.6605L64.6406 44.0946L79.7123 40.1335L89.9103 49.7039L105.043 45.1868L115.551 57.0429L130.685 52.5258L85.3638 100.981L70.1691 106.054L59.7227 93.6423L44.528 98.7154L33.218 89.0219L18.0233 94.0951Z" stroke="#A7CDFF" stroke-width="2"/>
<path d="M66.977 85.977L75.6811 76.7609L78.2412 78.8089M78.2412 78.8089L80.2892 80.3449L87.9693 71.6408L85.4093 70.1048L80.2892 76.2488M78.2412 78.8089L80.2892 76.2488M80.2892 76.2488L77.9852 74.2008" stroke="#14479D" stroke-width="0.5"/>
<path d="M53.6648 67.5447L64.417 77.2729L75.6811 76.7609L80.4812 71.6408M79.6878 65.3002L75.1691 65.4967L73.6331 67.0327H78.7532L79.6878 65.3002ZM79.6878 65.3002L84.3853 65.096M84.3853 65.096L86.9453 64.9847L94.1134 70.6168L91.5534 73.6888L89.5054 76.7609L94.1134 79.8329L97.1855 76.7609L83.3613 68.5687L80.4812 71.6408M84.3853 65.096L82.8493 67.0327L79.7772 71.1288L80.4812 71.6408" stroke="#14479D" stroke-width="0.5"/>
<path d="M73.6331 67.0327L70.5611 70.6168L60.3209 60.3766H49.5687L43.9366 66.0087L37.2805 59.6551M32.6725 55.2565L37.2805 59.6551M37.2805 59.6551L40.3526 56.7925L42.9126 59.6551L46.4967 62.9366L57.2488 63.4486L53.6648 67.5447L49.0567 67.0327L52.1288 63.4486" stroke="#14479D" stroke-width="0.5"/>
<path d="M64.417 77.2729L56.2248 85.977H66.977L78.7532 96.2172L71.0731 104.409" stroke="#14479D" stroke-width="0.5"/>
<path fill-rule="evenodd" clip-rule="evenodd" d="M79.3485 48.7586C81.2047 46.1025 82.2936 42.8705 82.2936 39.3843C82.2936 30.3355 74.9581 23 65.9093 23C56.8606 23 49.5251 30.3355 49.5251 39.3843C49.5251 42.7108 50.5164 45.8057 52.2198 48.3899L62.8373 72.1528H65.9093L79.3485 48.7586ZM65.9093 49.6244C71.5648 49.6244 76.1495 45.0397 76.1495 39.3843C76.1495 33.7288 71.5648 29.1441 65.9093 29.1441C60.2538 29.1441 55.6692 33.7288 55.6692 39.3843C55.6692 45.0397 60.2538 49.6244 65.9093 49.6244Z" fill="#1D64DD"/>
<path fill-rule="evenodd" clip-rule="evenodd" d="M76.2765 48.7586C78.1327 46.1025 79.2215 42.8705 79.2215 39.3843C79.2215 30.3355 71.8861 23 62.8373 23C53.7885 23 46.453 30.3355 46.453 39.3843C46.453 42.8705 47.5419 46.1025 49.3981 48.7586L62.8373 72.1528L76.2765 48.7586ZM62.8373 49.6244C68.4928 49.6244 73.0774 45.0397 73.0774 39.3843C73.0774 33.7288 68.4928 29.1441 62.8373 29.1441C57.1818 29.1441 52.5971 33.7288 52.5971 39.3843C52.5971 45.0397 57.1818 49.6244 62.8373 49.6244Z" fill="#7CB4FF"/>
</g>
</svg>
