<svg width="59" height="61" viewBox="0 0 59 61" fill="none" xmlns="http://www.w3.org/2000/svg">
<path d="M0 25H59V55C59 58.3137 56.3137 61 53 61H6C2.68629 61 0 58.3137 0 55V25Z" fill="#14479D"/>
<path d="M30.5 1C30.6093 1.05464 58.8938 25 58.8938 25H0L28.5 1C29.5 0.5 29.5 0.5 30.5 1Z" fill="#7CB4FF"/>
<rect x="8" y="21" width="44" height="27" rx="4" fill="white"/>
<rect x="11" y="28" width="8.89362" height="2.13458" rx="1" fill="#A7CDFF"/>
<rect x="11" y="31.5576" width="20.2128" height="2.13458" rx="1" fill="#A7CDFF"/>
<rect x="32.8298" y="31.5576" width="5.65958" height="2.13458" rx="1" fill="#A7CDFF"/>
<path d="M27.9787 36.1153C27.9787 35.563 28.4264 35.1153 28.9787 35.1153H40.7234C41.2757 35.1153 41.7234 35.563 41.7234 36.1153V36.2498C41.7234 36.8021 41.2757 37.2498 40.7234 37.2498H28.9787C28.4264 37.2498 27.9787 36.8021 27.9787 36.2498V36.1153Z" fill="#A7CDFF"/>
<rect x="11" y="35.1153" width="15.3617" height="2.13458" rx="1" fill="#A7CDFF"/>
<rect x="21.5106" y="28" width="27.4894" height="2.13458" rx="1" fill="#A7CDFF"/>
<path d="M32 48L0 25V55L1.5 59L6 61L32 48Z" fill="#4F99FC"/>
<path d="M32 48L0 25V55L1.5 59L6 61L32 48Z" fill="#4F99FC"/>
<path d="M27 48L59 25V55L53 61L27 48Z" fill="#4B8AF4"/>
<path d="M27 48L59 25V55L53 61L27 48Z" fill="#4B8AF4"/>
<path d="M30 39L59 55V55C59 58.3137 56.3137 61 53 61H6C2.68629 61 0 58.3137 0 55V55L30 39Z" fill="#86ADFF"/>
</svg>
