<svg width="106" height="78" viewBox="0 0 106 78" fill="none" xmlns="http://www.w3.org/2000/svg">
<path d="M104.489 72.6841L80.8533 41.9162C79.4409 40.0779 77.2472 39 74.9182 39H30.3866C28.0576 39 25.8639 40.0779 24.4515 41.9162L0.818309 72.6841C-1.16937 75.2722 0.720123 78 4 78H101.5C104.78 77.9979 106.476 75.2701 104.489 72.6841Z" fill="#CFE4FF"/>
<path d="M2.14908 72.748C1.52445 72.748 0.944886 72.9312 0.457627 73.2443C-0.898972 75.7771 0.951946 78 4 78H101.5C104.548 78 106.206 75.7771 104.849 73.2443C104.362 72.9312 103.782 72.748 103.158 72.748H2.14908Z" fill="#14479D"/>
<path d="M42.5079 54.8228L59.4182 72.748H52.5064L37.5409 56.9806L42.5079 54.8228Z" fill="white"/>
<path d="M77.6851 39.5326C76.8157 39.1875 75.8799 39.0022 74.9204 39.0022H66.33L6.82212 64.8686L0.818312 72.6841C0.726011 72.8055 0.644444 72.9291 0.567169 73.0526L77.6851 39.5326Z" fill="#FEE379"/>
<path d="M0.569275 73.0526L37.5409 56.9806L52.5064 72.748L0.569275 73.0526Z" fill="#86ADFF"/>
<path d="M6.82208 64.8686L66.33 39.0022H30.3865C28.0576 39.0022 25.8638 40.08 24.4514 41.9183L6.82208 64.8686Z" fill="#4F99FC"/>
<path d="M89.2912 52.9014L87.4645 50.5241L76.337 55.3511L66.1453 44.5469L61.2448 46.6771L71.4322 57.477L52.6523 65.6227L54.8031 67.8572L73.5529 59.7264L85.8375 72.748H92.7471L78.4577 57.5984L89.2912 52.9014Z" fill="#1D64DD"/>
<path opacity="0.3" d="M82 43.5L81 42C79.5 40 77 39 74.659 39H52.6759L51.4615 56H54.5L82 43.5Z" fill="url(#paint0_linear)"/>
<path fill-rule="evenodd" clip-rule="evenodd" d="M67.8955 32.7586C69.7517 30.1025 70.8406 26.8705 70.8406 23.3843C70.8406 14.3355 63.5051 7 54.4563 7C45.4075 7 38.0721 14.3355 38.0721 23.3843C38.0721 26.7108 39.0634 29.8057 40.7668 32.3899L51.3843 56.1528H54.4563L67.8955 32.7586ZM54.4563 33.6244C60.1118 33.6244 64.6965 29.0397 64.6965 23.3843C64.6965 17.7288 60.1118 13.1441 54.4563 13.1441C48.8008 13.1441 44.2162 17.7288 44.2162 23.3843C44.2162 29.0397 48.8008 33.6244 54.4563 33.6244Z" fill="#1D64DD"/>
<path fill-rule="evenodd" clip-rule="evenodd" d="M64.8235 32.7586C66.6797 30.1025 67.7685 26.8705 67.7685 23.3843C67.7685 14.3355 60.433 7 51.3843 7C42.3355 7 35 14.3355 35 23.3843C35 26.8705 36.0889 30.1025 37.9451 32.7586L51.3843 56.1528L64.8235 32.7586ZM51.3843 33.6244C57.0398 33.6244 61.6244 29.0397 61.6244 23.3843C61.6244 17.7288 57.0398 13.1441 51.3843 13.1441C45.7288 13.1441 41.1441 17.7288 41.1441 23.3843C41.1441 29.0397 45.7288 33.6244 51.3843 33.6244Z" fill="#7CB4FF"/>
<defs>
<linearGradient id="paint0_linear" x1="87.5657" y1="27.9922" x2="48.3212" y2="50.3766" gradientUnits="userSpaceOnUse">
<stop/>
<stop offset="1"/>
</linearGradient>
</defs>
</svg>
