<svg width="129" height="123" viewBox="0 0 129 123" fill="none" xmlns="http://www.w3.org/2000/svg">
<path d="M0.00216086 48.5C-0.397839 11.3 54.8355 0.666667 82.5022 0C100.002 0 106.002 9.5 101.502 16C92.7875 28.5879 90.2362 35.4588 101.502 42.5C105.502 45 136.402 59 126.002 89C115.602 119 51.0022 114.5 46.5022 113.5C33.0022 111 0.402161 85.7 0.00216086 48.5Z" fill="#E8F2FF"/>
<path d="M11.4877 5.68641C9.24413 5.66957 13.297 1.69598 15.2632 1.1539C19.4366 0.00333917 19.6435 3.31629 19.6716 5.23718C19.6997 7.15807 17.4751 8.92329 15.5642 8.34856C12.8884 7.54381 14.9352 5.71228 11.4877 5.68641Z" fill="#E8F2FF"/>
<circle cx="85.0022" cy="120" r="3" fill="#E2ECF9"/>
<circle cx="101.502" cy="34.5" r="1.5" fill="#E2ECF9"/>
<mask id="mask0" mask-type="alpha" maskUnits="userSpaceOnUse" x="0" y="0" width="129" height="123">
<path d="M0.00216086 48.5C-0.397839 11.3 54.8355 0.666667 82.5022 0C100.002 0 106.002 9.5 101.502 16C92.7875 28.5879 90.2362 35.4588 101.502 42.5C105.502 45 136.402 59 126.002 89C115.602 119 51.0022 114.5 46.5022 113.5C33.0022 111 0.402161 85.7 0.00216086 48.5Z" fill="#E2ECF9"/>
<path d="M11.4877 5.68641C9.24413 5.66957 13.297 1.69598 15.2632 1.1539C19.4366 0.00333917 19.6435 3.31629 19.6716 5.23718C19.6997 7.15807 17.4751 8.92329 15.5642 8.34856C12.8884 7.54381 14.9352 5.71228 11.4877 5.68641Z" fill="#E2ECF9"/>
<path d="M88.0022 120C88.0022 121.657 86.659 123 85.0022 123C83.3453 123 82.0022 121.657 82.0022 120C82.0022 118.343 83.3453 117 85.0022 117C86.659 117 88.0022 118.343 88.0022 120Z" fill="#E2ECF9"/>
<path d="M103.002 34.5C103.002 35.3284 102.331 36 101.502 36C100.674 36 100.002 35.3284 100.002 34.5C100.002 33.6716 100.674 33 101.502 33C102.331 33 103.002 33.6716 103.002 34.5Z" fill="#E2ECF9"/>
</mask>
<g mask="url(#mask0)">
<rect x="68.4262" y="83.4918" width="6.2623" height="40.7049" fill="#3680E3"/>
<rect x="74.6885" y="81.4044" width="5.21858" height="42.7924" fill="#1D64DD"/>
<path d="M51.2049 35.4809L106 24L104.956 66.7924L67.3825 89.7541L51.2049 84.5355V35.4809Z" fill="#4F99FC"/>
<path d="M34.1794 52.2765C34.0716 43.0324 41.5356 35.4809 50.7804 35.4809C59.9495 35.4809 67.3825 42.9139 67.3825 52.083V89.7541L34.5403 83.2413L34.1794 52.2765Z" fill="#14479D"/>
<path d="M35.2062 52.2683C35.1078 43.6024 42.1056 36.5246 50.772 36.5246C59.3693 36.5246 66.3388 43.4941 66.3388 52.0914V88.7104L35.5492 82.4481L35.2062 52.2683Z" fill="#1D64DD"/>
<path d="M66.3388 68.3579V88.7104L35.5492 82.4481L66.3388 68.3579Z" fill="#4F99FC"/>
<path d="M21.6529 101.233C16.5595 107.281 18.6065 116.517 25.7785 119.847L27.258 120.534C35.0967 124.173 44.4155 121.728 49.4574 114.709L67.3825 89.7541L66.3388 88.7104L36.5929 83.4918L21.6529 101.233Z" fill="#14479D"/>
<path d="M20.6092 100.189C15.5158 106.238 17.5628 115.473 24.7348 118.803L26.2143 119.49C34.0529 123.129 43.3718 120.684 48.4137 113.665L66.3388 88.7104L35.5492 82.4481L20.6092 100.189Z" fill="#3680E3"/>
<circle cx="75.2104" cy="61.0519" r="2.60929" fill="#2B5FB7"/>
<circle cx="75.2104" cy="61.0519" r="1.56557" fill="#0D3C7C"/>
<path d="M75.2104 59.4863L97.6503 50.0929V52.7022L75.7322 62.6175L75.2104 59.4863Z" fill="#0D3C7C"/>
<path d="M96.6066 57.9208L97.6503 52.7022L93.4754 54.2678L96.6066 57.9208Z" fill="#0D3C7C"/>
</g>
</svg>
