<svg width="129" height="123" viewBox="0 0 129 123" fill="none" xmlns="http://www.w3.org/2000/svg">
<path d="M0.00216086 48.5C-0.397839 11.3 54.8355 0.666667 82.5022 0C100.002 0 106.002 9.5 101.502 16C92.7875 28.5879 90.2362 35.4588 101.502 42.5C105.502 45 136.402 59 126.002 89C115.602 119 51.0022 114.5 46.5022 113.5C33.0022 111 0.402161 85.7 0.00216086 48.5Z" fill="#E8F2FF"/>
<path d="M11.4877 5.68641C9.24412 5.66957 13.297 1.69598 15.2632 1.1539C19.4366 0.00333917 19.6435 3.31629 19.6716 5.23718C19.6997 7.15807 17.4751 8.92329 15.5642 8.34856C12.8884 7.54381 14.9352 5.71228 11.4877 5.68641Z" fill="#E8F2FF"/>
<circle cx="85.0022" cy="120" r="3" fill="#E2ECF9"/>
<circle cx="101.502" cy="34.5" r="1.5" fill="#E2ECF9"/>
<mask id="mask0" mask-type="alpha" maskUnits="userSpaceOnUse" x="0" y="0" width="129" height="123">
<path d="M0.00216086 48.5C-0.397839 11.3 54.8355 0.666667 82.5022 0C100.002 0 106.002 9.5 101.502 16C92.7875 28.5879 90.2362 35.4588 101.502 42.5C105.502 45 136.402 59 126.002 89C115.602 119 51.0022 114.5 46.5022 113.5C33.0022 111 0.402161 85.7 0.00216086 48.5Z" fill="#E2ECF9"/>
<path d="M11.4877 5.68641C9.24413 5.66957 13.297 1.69598 15.2632 1.1539C19.4366 0.00333917 19.6435 3.31629 19.6716 5.23718C19.6997 7.15807 17.4751 8.92329 15.5642 8.34856C12.8884 7.54381 14.9352 5.71228 11.4877 5.68641Z" fill="#E2ECF9"/>
<path d="M88.0022 120C88.0022 121.657 86.659 123 85.0022 123C83.3453 123 82.0022 121.657 82.0022 120C82.0022 118.343 83.3453 117 85.0022 117C86.659 117 88.0022 118.343 88.0022 120Z" fill="#E2ECF9"/>
<path d="M103.002 34.5C103.002 35.3284 102.331 36 101.502 36C100.674 36 100.002 35.3284 100.002 34.5C100.002 33.6716 100.674 33 101.502 33C102.331 33 103.002 33.6716 103.002 34.5Z" fill="#E2ECF9"/>
</mask>
<g mask="url(#mask0)">
<path d="M20.5537 67.5987C20.2341 66.6759 20.6277 65.6571 21.4848 65.189L77.4091 34.6421C78.5001 34.0462 79.8647 34.5794 80.2626 35.7572L100.247 94.907C100.563 95.8423 100.149 96.8682 99.2728 97.3227L43.3189 126.338C42.2362 126.899 40.9074 126.369 40.5083 125.217L20.5537 67.5987Z" fill="#1D64DD"/>
<path d="M74.7679 45.6859C74.595 45.2432 74.5854 44.7533 74.7409 44.3042L78.1451 34.4696C78.4452 33.6027 79.6568 33.5636 80.0121 34.4095L109.105 103.671C109.508 104.631 109.106 105.741 108.181 106.221L102.028 109.411C100.973 109.958 99.677 109.47 99.2448 108.363L74.7679 45.6859Z" fill="#14479D"/>
<path d="M74.478 45.2476C74.2298 44.3403 74.8684 43.4311 75.8061 43.3567L104.202 41.103C104.947 41.0439 105.621 41.5414 105.785 42.27L117.95 96.5165C118.099 97.1812 117.782 97.8628 117.177 98.1764L94.1064 110.14C93.2585 110.58 92.221 110.125 91.969 109.204L74.478 45.2476Z" fill="#3680E3"/>
<path d="M20.4175 67.4408C20.1972 66.6805 20.7017 65.9015 21.4855 65.7915L47.3835 62.1567C48.0242 62.0668 48.6334 62.4616 48.8131 63.0831L66.6952 124.941C66.8674 125.536 66.5951 126.17 66.0448 126.456L42.653 138.586C41.9253 138.963 41.0342 138.581 40.806 137.794L20.4175 67.4408Z" fill="#3680E3"/>
<path d="M48.6894 62.9133C48.3561 61.8453 46.788 62.047 46.7358 63.1646L46.2872 72.7861C46.281 72.9185 46.3012 73.0508 46.3466 73.1754L64.2933 122.373C64.6794 123.432 66.2492 123.142 66.2326 122.016L66.1901 119.13C66.1887 119.034 66.1734 118.938 66.1448 118.847L48.6894 62.9133Z" fill="#14479D"/>
<path d="M46.2738 73.6736C45.9931 72.7652 46.3907 71.7847 47.2249 71.3284L102.369 41.1656C103.473 40.5617 104.854 41.1155 105.235 42.3151L124.018 101.481C124.3 102.37 123.931 103.336 123.128 103.809L68.1796 136.215C67.0673 136.871 65.6341 136.316 65.2528 135.082L46.2738 73.6736Z" fill="#4F99FC"/>
<circle cx="48" cy="58" r="2" fill="#6DABFE"/>
<circle cx="61" cy="51" r="2" fill="#6DABFE"/>
<circle cx="73" cy="66" r="2" fill="#1D64DD"/>
<circle cx="86" cy="59" r="2" fill="#1D64DD"/>
<circle cx="73" cy="66" r="1" fill="#0D3C7C"/>
<circle cx="48" cy="58" r="1" fill="#0D3C7C"/>
<circle cx="61" cy="51" r="1" fill="#0D3C7C"/>
<circle cx="86" cy="59" r="1" fill="#04306B"/>
<path d="M73 66C75.5 66.5 80.1736 76.1124 84 83C89 92 95.5 89 94 80C93.0136 74.0816 87 59 86 59" stroke="url(#paint0_linear)" stroke-width="2"/>
</g>
<defs>
<linearGradient id="paint0_linear" x1="84.8954" y1="59" x2="84.8954" y2="84.9362" gradientUnits="userSpaceOnUse">
<stop stop-color="#04306B"/>
<stop offset="1" stop-color="#245DA9"/>
</linearGradient>
</defs>
</svg>
