<svg width="37" height="23" viewBox="0 0 37 23" fill="none" xmlns="http://www.w3.org/2000/svg">
<g clip-path="url(#clip0)">
<path d="M17.4571 7.60217L15.1536 12.8175L12.8612 7.60217H9.92342V15.0927L6.64984 7.60217H4.17096L0.827637 15.3767H2.80616L3.53761 13.6416H7.27882L8.02227 15.3767H11.7994V9.60232L14.3055 15.3767H16.0094L18.5722 9.70254V15.3767H20.4494V7.60217H17.4571ZM4.24509 11.9622L5.36353 9.24483L6.52556 11.9622H4.24509Z" fill="#1976D2"/>
<path d="M32.7756 11.4032L36.1735 7.62234H33.7567L31.583 10.0323L29.4802 7.60229H22.0022V15.3779H29.235L31.5154 12.8042L33.7392 15.398H36.1484L32.7756 11.4032ZM28.2462 13.7453H23.8739V12.2073H28.0577V10.7339H23.8739V9.27725L28.4894 9.29061L30.3349 11.4032L28.2462 13.7453Z" fill="#1976D2"/>
</g>
<defs>
<clipPath id="clip0">
<rect width="37" height="23" fill="white"/>
</clipPath>
</defs>
</svg>
