<svg width="37" height="23" viewBox="0 0 37 23" fill="none" xmlns="http://www.w3.org/2000/svg">
<path d="M33.4762 0H3.52381C1.57766 0 0 1.47106 0 3.28571V19.7143C0 21.5289 1.57766 23 3.52381 23H33.4762C35.4223 23 37 21.5289 37 19.7143V3.28571C37 1.47106 35.4223 0 33.4762 0Z" fill="#CCCCCC"/>
<path d="M37 4.59998H0V9.19998H37V4.59998Z" fill="#3D4246"/>
<path d="M27.1333 15.7714C27.1333 15.3177 27.5277 14.95 28.0143 14.95H33.6524C34.1389 14.95 34.5333 15.3177 34.5333 15.7714V19.3035C34.5333 19.7572 34.1389 20.125 33.6524 20.125H28.0143C27.5277 20.125 27.1333 19.7572 27.1333 19.3035V15.7714Z" fill="#A6A6A6"/>
<path d="M10.6594 15.525H2.90703C2.66376 15.525 2.46655 15.7089 2.46655 15.9357V16.2643C2.46655 16.4911 2.66376 16.675 2.90703 16.675H10.6594C10.9027 16.675 11.0999 16.4911 11.0999 16.2643V15.9357C11.0999 15.7089 10.9027 15.525 10.6594 15.525Z" fill="#A6A6A6"/>
<path d="M9.42607 17.25H2.90703C2.66376 17.25 2.46655 17.4339 2.46655 17.6607V17.9893C2.46655 18.2161 2.66376 18.4 2.90703 18.4H9.42607C9.66934 18.4 9.86655 18.2161 9.86655 17.9893V17.6607C9.86655 17.4339 9.66934 17.25 9.42607 17.25Z" fill="#A6A6A6"/>
<path d="M12.5094 18.975H2.90703C2.66376 18.975 2.46655 19.1589 2.46655 19.3857V19.7143C2.46655 19.9411 2.66376 20.125 2.90703 20.125H12.5094C12.7527 20.125 12.9499 19.9411 12.9499 19.7143V19.3857C12.9499 19.1589 12.7527 18.975 12.5094 18.975Z" fill="#A6A6A6"/>
<path d="M27.1333 18.4H29.6V14.95" stroke="#CCCCCC"/>
<path d="M32.0667 14.95V20.125" stroke="#CCCCCC"/>
<path d="M27.1333 16.675H29.2916" stroke="#CCCCCC"/>
<path d="M32.0667 16.675H34.5333" stroke="#CCCCCC"/>
<path d="M32.0667 18.4H34.5333" stroke="#CCCCCC"/>
</svg>
