<svg width="36" height="22" viewBox="0 0 36 22" fill="none" xmlns="http://www.w3.org/2000/svg">
<path d="M24.7433 0.169434H11.2048C5.24787 0.169434 0.374023 5.04329 0.374023 11.0002C0.374023 16.9571 5.24787 21.831 11.2048 21.831H24.7433C30.7002 21.831 35.5741 16.9571 35.5741 11.0002C35.5741 5.04329 30.7002 0.169434 24.7433 0.169434Z" fill="#1565C0"/>
<path d="M11.2044 2.87695C6.73669 2.87695 3.0813 6.53234 3.0813 11C3.0813 15.4677 6.73669 19.1231 11.2044 19.1231C15.6721 19.1231 19.3275 15.4677 19.3275 11C19.3275 6.53234 15.6721 2.87695 11.2044 2.87695ZM5.78899 11C5.78899 8.42773 7.549 6.39696 9.85054 5.72003V16.1447C7.549 15.6031 5.78899 13.5723 5.78899 11ZM12.5582 16.28V5.85542C14.8598 6.39696 16.6198 8.56311 16.6198 11.1354C16.6198 13.5723 14.8598 15.6031 12.5582 16.28Z" fill="white"/>
</svg>
