<svg width="37" height="23" viewBox="0 0 37 23" fill="none" xmlns="http://www.w3.org/2000/svg">
<path d="M33.845 0H3.15507C1.41323 0 0 1.07929 0 2.40955V20.5904C0 21.9207 1.41323 23 3.15507 23H33.5581C35.3 23 37 21.9207 37 20.5904V2.40955C37 1.07929 35.5868 0 33.845 0Z" fill="#F9F9F9"/>
<path d="M33.7106 10.6793C34.5059 10.515 34.9397 9.98258 34.9397 9.15439C34.9397 7.28107 32.9481 7.55056 31.4627 7.55056L31.4626 12.9404H32.5144V10.7845H32.659L34.1182 12.9404H35.4066L33.7106 10.6793ZM32.8231 10.0483H32.5143V8.41172H32.8363C33.5001 8.41172 33.8617 8.68767 33.8617 9.20705C33.8617 9.75912 33.5001 10.0483 32.8231 10.0483Z" fill="black"/>
<path d="M27.7881 7.55713H30.7658V8.47731H28.84V9.6737H30.7V10.5806H28.84V12.0399H30.7658V12.9469H27.7881V7.55713Z" fill="black"/>
<path d="M23.2726 7.55713L24.7121 11.1854L26.1713 7.55713H27.3216L24.9882 13.0916H24.4229L22.1223 7.55713H23.2726Z" fill="black"/>
<path d="M19.5983 7.35999C21.2218 7.35999 22.5299 8.67452 22.5299 10.2915C22.5299 11.915 21.2152 13.2231 19.5983 13.2231C17.9747 13.2231 16.6667 11.9084 16.6667 10.2915C16.6667 8.66798 17.9815 7.35999 19.5983 7.35999Z" fill="#FF6F00"/>
<path d="M16.3577 7.76097V9.00985C15.0366 7.68869 13.2816 8.70103 13.2816 10.2587C13.2816 11.902 15.0891 12.7894 16.3577 11.5208V12.7696C14.4056 13.7095 12.197 12.395 12.197 10.2587C12.197 8.20789 14.3727 6.77505 16.3577 7.76097Z" fill="black"/>
<path d="M9.96888 12.1187C10.7182 12.1187 11.4412 11.1131 9.75196 10.515C8.76613 10.1534 8.42426 9.76571 8.42426 9.02296C8.42426 7.49796 10.4355 6.95905 11.691 8.08316L11.1389 8.79287C10.4553 8.0305 9.50217 8.38536 9.50217 8.95739C9.50217 9.24651 9.67968 9.41077 10.3107 9.63423C11.507 10.0681 11.8619 10.456 11.8619 11.3169C11.8619 13.256 9.31158 13.7753 8.1416 12.0596L8.8187 11.4089C9.06178 11.8756 9.4693 12.1187 9.96888 12.1187Z" fill="black"/>
<path d="M7.73412 7.55713H6.68237V12.9469H7.73412V7.55713Z" fill="black"/>
<path d="M37 20.4076V13.24C34.9034 14.5494 22.7589 20.7609 10.8342 22.9999H34.2041C35.6241 22.9823 37 21.8283 37 20.4076Z" fill="#FF6F00"/>
<path d="M3.29744 7.55713H1.75928V12.9469H3.29736C5.3284 12.9469 6.19601 11.4747 6.19601 10.2586C6.19609 8.67453 5.01295 7.55713 3.29744 7.55713ZM4.52645 11.6192C4.20437 11.9084 3.76399 12.0399 3.08698 12.0399H2.81085V8.47731H3.08698C3.76399 8.47731 4.18467 8.58908 4.52645 8.91107C4.90109 9.23985 5.11148 9.73927 5.11148 10.2586C5.11156 10.7778 4.90109 11.2773 4.52645 11.6192Z" fill="black"/>
</svg>
