<svg width="37" height="23" viewBox="0 0 37 23" fill="none" xmlns="http://www.w3.org/2000/svg">
<g clip-path="url(#clip0)">
<path d="M33.2047 18.4502C33.2047 21.0179 31.1 23.1086 28.5152 23.1086H3V4.65841C3 2.09078 5.10473 0 7.68948 0H33.2047V18.4502Z" fill="white"/>
<path d="M24.8965 13.7185H26.835C26.8904 13.7185 27.0197 13.7002 27.0751 13.7002C27.4443 13.6268 27.7582 13.2967 27.7582 12.8382C27.7582 12.3981 27.4443 12.0679 27.0751 11.9762C27.0197 11.9579 26.9089 11.9579 26.835 11.9579H24.8965V13.7185Z" fill="#5CB531"/>
<path d="M26.6137 1.55908C24.7675 1.55908 23.2536 3.04464 23.2536 4.897V8.36329H27.9984C28.1092 8.36329 28.2385 8.36329 28.3308 8.38163C29.4016 8.43665 30.1955 8.98686 30.1955 9.94055C30.1955 10.6925 29.6601 11.3344 28.6631 11.4628V11.4995C29.7524 11.5728 30.5832 12.1781 30.5832 13.1134C30.5832 14.1221 29.6601 14.7824 28.4415 14.7824H23.2351V21.5682H28.1646C30.0109 21.5682 31.5248 20.0827 31.5248 18.2303V1.55908L26.6137 1.55908Z" fill="#5CB531"/>
<path d="M27.5182 10.1604C27.5182 9.7202 27.2043 9.42675 26.835 9.37173C26.7981 9.37173 26.7058 9.35339 26.6504 9.35339H24.8965V10.9673H26.6504C26.7058 10.9673 26.8166 10.9673 26.835 10.949C27.2043 10.894 27.5182 10.6005 27.5182 10.1604V10.1604Z" fill="#5CB531"/>
<path d="M8.04026 1.55908C6.19401 1.55908 4.68008 3.04464 4.68008 4.897V13.1317C5.62167 13.5902 6.60019 13.8837 7.5787 13.8837C8.74184 13.8837 9.36956 13.1868 9.36956 12.2331V8.34495H12.2497V12.2147C12.2497 13.7186 11.3081 14.9474 8.11411 14.9474C6.17555 14.9474 4.66162 14.5256 4.66162 14.5256V21.5499H9.59111C11.4374 21.5499 12.9513 20.0643 12.9513 18.212V1.55908L8.04026 1.55908Z" fill="#006FBC"/>
<path d="M17.327 1.55908C15.4807 1.55908 13.9668 3.04464 13.9668 4.897V9.26196C14.8161 8.54669 16.2931 8.08819 18.6747 8.19823C19.9487 8.25325 21.3149 8.60172 21.3149 8.60172V10.0139C20.6318 9.66545 19.8194 9.35366 18.7671 9.2803C16.9577 9.15192 15.8684 10.0323 15.8684 11.5728C15.8684 13.1317 16.9577 14.0121 18.7671 13.8654C19.8194 13.792 20.6318 13.4619 21.3149 13.1317V14.5439C21.3149 14.5439 19.9671 14.8924 18.6747 14.9474C16.2931 15.0575 14.8161 14.599 13.9668 13.8837V21.5866H18.8963C20.7425 21.5866 22.2565 20.101 22.2565 18.2487V1.55908L17.327 1.55908Z" fill="#E60039"/>
</g>
<defs>
<clipPath id="clip0">
<rect width="37" height="23" fill="white"/>
</clipPath>
</defs>
</svg>
