<svg width="32" height="32" viewBox="0 0 32 32" fill="none" xmlns="http://www.w3.org/2000/svg">
<path d="M12.2437 7.40502L12.2479 7.40671C12.3354 7.03374 12.6537 6.75927 13.0519 6.75927H24.3942C24.4085 6.75927 24.4229 6.75338 24.4372 6.75422C24.1955 2.73069 20.8203 0.865845 17.8424 0.865845H6.5001C6.10103 0.865845 5.78279 1.14789 5.69607 1.52002L5.69186 1.51833L0.733804 24.2821L0.744749 24.283C0.732962 24.3368 0.711914 24.3882 0.711914 24.4463C0.711914 24.9119 1.08825 25.2806 1.55383 25.2806H8.34895L12.2437 7.40502Z" fill="#1565C0"/>
<path d="M24.4373 6.75415C24.4819 7.49167 24.433 8.29402 24.2445 9.18056C23.166 14.2279 19.267 16.8546 14.4487 16.8546C14.4487 16.8546 11.5273 16.8546 10.8175 16.8546C10.3789 16.8546 10.1718 17.1123 10.0767 17.3093L8.61172 24.0859L8.35493 25.289H8.34988L7.28654 30.1687L7.29748 30.1696C7.2857 30.2235 7.26465 30.2748 7.26465 30.3329C7.26465 30.7985 7.64099 31.1748 8.10657 31.1748H14.2804L14.2913 31.1664C14.6887 31.1605 15.0044 30.8768 15.0869 30.503L15.1021 30.4904L16.6276 23.4048C16.6276 23.4048 16.7337 22.7287 17.4443 22.7287C18.1549 22.7287 20.9618 22.7287 20.9618 22.7287C25.7801 22.7287 29.7186 20.1137 30.7979 15.0656C32.012 9.3742 27.9523 6.7752 24.4373 6.75415Z" fill="#039BE5"/>
<path d="M13.0519 6.75927C12.6528 6.75927 12.3345 7.03374 12.2478 7.40671L12.2436 7.40502L10.0757 17.3102C10.1708 17.1132 10.3779 16.8556 10.8166 16.8556C11.5271 16.8556 14.3821 16.8556 14.3821 16.8556C19.2004 16.8556 23.165 14.2288 24.2435 9.18147C24.4329 8.29493 24.4809 7.49258 24.4363 6.75506C24.4228 6.75338 24.4077 6.75927 24.3942 6.75927H13.0519Z" fill="#283593"/>
</svg>
