<svg width="37" height="23" viewBox="0 0 37 23" fill="none" xmlns="http://www.w3.org/2000/svg">
<g clip-path="url(#clip0)">
<path d="M10.5262 5.39624L7.77613 13.3767C7.77613 13.3767 7.0776 10.0009 7.00849 9.57703C5.44283 6.10136 3.13257 6.29496 3.13257 6.29496L5.85545 16.6048V16.6027H9.16585L13.7435 5.39624H10.5262Z" fill="#1565C0"/>
<path d="M13.1482 16.6048H16.155L17.973 5.39624H14.9286L13.1482 16.6048Z" fill="#1565C0"/>
<path d="M34.4274 5.39624H31.2637L26.3311 16.6048H29.3178L29.9336 15.004H33.6996L34.0201 16.6048H36.7566L34.4274 5.39624ZM30.7673 12.8632L32.4042 8.62736L33.2608 12.8632H30.7673Z" fill="#1565C0"/>
<path d="M22.2383 8.66306C22.2383 8.04558 22.7598 7.58603 24.2553 7.58603C25.2272 7.58603 26.3404 8.2728 26.3404 8.2728L26.8284 5.92002C26.8284 5.92002 25.4063 5.39526 24.0102 5.39526C20.8486 5.39526 19.2179 6.86664 19.2179 8.7293C19.2179 12.098 23.385 11.6364 23.385 13.3666C23.385 13.6631 23.1431 14.3488 21.4078 14.3488C19.6672 14.3488 18.5184 13.7283 18.5184 13.7283L18 15.9863C18 15.9863 19.1133 16.6038 21.2643 16.6038C23.4206 16.6038 26.4116 15.0346 26.4116 12.7807C26.4116 10.0692 22.2383 9.87359 22.2383 8.66306Z" fill="#1565C0"/>
<path d="M7.41212 11.454L6.40047 6.61601C6.40047 6.61601 5.94282 5.5675 4.75313 5.5675C3.56343 5.5675 0.103271 5.5675 0.103271 5.5675C0.103271 5.5675 6.03183 7.27121 7.41212 11.454Z" fill="#FFC107"/>
</g>
<defs>
<clipPath id="clip0">
<rect width="37" height="23" fill="white"/>
</clipPath>
</defs>
</svg>
