<svg width="58" height="43" viewBox="0 0 58 43" fill="none" xmlns="http://www.w3.org/2000/svg">
<path fill-rule="evenodd" clip-rule="evenodd" d="M15.6583 12.5061C18.1071 9.84196 21.3993 7.8439 25.5351 6.51183L22.923 0.850586C19.0049 1.62762 15.6311 2.93192 12.8014 4.76351C9.97166 6.5951 7.63174 8.70417 5.78153 11.0908C3.93133 13.4774 2.5437 16.0582 1.6186 18.8334C0.6935 21.6085 0.230957 24.3836 0.230957 27.1587C0.230957 31.932 1.6458 35.5951 4.47552 38.1482C7.30524 40.7013 10.6247 42.1444 14.4339 42.4774C15.5223 42.3664 16.7194 41.8946 18.0255 41.0621C19.3315 40.2295 20.4742 39.175 21.4538 37.8984C22.4333 36.6219 23.1407 35.1511 23.576 33.486C24.0114 31.8209 24.0114 30.1004 23.576 28.3243C21.9435 27.7693 20.0389 26.9645 17.8622 25.9099C15.6855 24.8554 13.9986 23.8286 12.8014 22.8295C12.2572 18.6113 13.2095 15.1702 15.6583 12.5061ZM47.9912 12.5061C50.44 9.84196 53.7323 7.8439 57.868 6.51183L55.256 0.850586C51.3379 1.62762 47.964 2.93192 45.1343 4.76351C42.3046 6.5951 39.9647 8.70417 38.1145 11.0908C36.2643 13.4774 34.8766 16.0582 33.9515 18.8334C33.0264 21.6085 32.5639 24.3836 32.5639 27.1587C32.5639 31.932 33.9787 35.5951 36.8085 38.1482C39.6382 40.7013 42.9576 42.1444 46.7668 42.4774C47.8552 42.3664 49.0524 41.8946 50.3584 41.0621C51.6644 40.2295 52.8072 39.175 53.7867 37.8984C54.7662 36.6219 55.4736 35.1511 55.909 33.486C56.3443 31.8209 56.3443 30.1004 55.909 28.3243C54.2764 27.7693 52.3718 26.9645 50.1951 25.9099C48.0184 24.8554 46.3315 23.8286 45.1343 22.8295C44.5901 18.6113 45.5424 15.1702 47.9912 12.5061Z" fill="#151522"/>
</svg>
